<svg id="Layer_1" xmlns="http://www.w3.org/2000/svg" viewBox="-651 1843 1417.3 1417.3"><style>.st0{stroke:#000;stroke-miterlimit:10}</style><path class="st0" d="M-401.6 2259.9l-43.2-47.6c-27.6 40.8-50.4 85.2-67.5 132.4l63.9 7c12.7-32.3 28.4-62.9 46.8-91.8zM-361.7 2898.3l-58.6 26.4c30.6 39.1 65.9 74.4 105 105l26.4-58.6c-26.5-21.9-50.9-46.3-72.8-72.8zM600.7 2517.8l62.9 13.1c-1.7-50.7-9.7-99.9-23.1-146.8l-55.8 31.9c8.4 32.9 13.8 66.9 16 101.8zM-448.4 2751.7l-63.9 7c17.1 47.1 39.9 91.5 67.5 132.4l43.2-47.6c-18.4-28.9-34.1-59.5-46.8-91.8zM-469.4 2416.1l-55.8-31.9c-13.4 46.8-21.4 96-23.1 146.8l62.9-13.1c2.2-35 7.6-69 16-101.8zM-485.4 2585.6l-62.9-13.1c1.7 50.8 9.7 99.9 23.1 146.8l55.8-31.9c-8.4-32.9-13.8-66.9-16-101.8zM-288.9 2132.3l-26.4-58.6c-39.1 30.6-74.4 65.9-105 105l58.6 26.4c21.9-26.5 46.3-50.9 72.8-72.8zM477 2205.1l58.6-26.4c-30.6-39.1-65.9-74.4-105-105l-26.4 58.6c26.5 21.9 50.9 46.3 72.8 72.8zM563.8 2351.7l63.9-7c-17.1-47.1-39.9-91.5-67.5-132.4l-43.2 47.6c18.3 28.9 34 59.5 46.8 91.8zM584.7 2687.3l55.8 31.9c13.4-46.8 21.4-96 23.1-146.8l-62.9 13.1c-2.2 35-7.6 69-16 101.8zM193.3 2024.7l31.9-55.8c-46.8-13.4-96-21.4-146.8-23.1l13.1 62.9c35 2.1 69 7.6 101.8 16zM349.5 2092.4l47.6-43.2c-40.8-27.6-85.2-50.4-132.4-67.5l-7 63.9c32.2 12.7 62.9 28.5 91.8 46.8zM23.8 2008.7l13.1-62.9c-50.7 1.7-99.9 9.7-146.8 23.1l31.9 55.8c32.8-8.4 66.9-13.9 101.8-16zM-142.4 2045.6l-7-63.9c-47.1 17.1-91.5 39.9-132.4 67.5l47.6 43.2c28.9-18.3 59.6-34.1 91.8-46.8zM-234.1 3011l-47.6 43.2c40.8 27.6 85.2 50.4 132.4 67.5l7-63.9c-32.3-12.7-63-28.5-91.8-46.8zM257.7 3057.8l7 63.9c47.1-17.1 91.5-39.9 132.4-67.5l-47.6-43.2c-28.9 18.3-59.6 34.1-91.8 46.8zM404.3 2971.1l26.4 58.6c39.1-30.6 74.4-65.9 105-105l-58.6-26.4c-22 26.5-46.4 50.9-72.8 72.8zM-78 3078.7l-31.9 55.8c46.8 13.4 96 21.4 146.8 23.1l-13.1-62.9c-34.9-2.1-69-7.6-101.8-16zM563.8 2751.7c-12.7 32.2-28.5 62.9-46.8 91.7l43.2 47.6c27.6-40.8 50.4-85.2 67.5-132.4l-63.9-6.9zM91.6 3094.7l-13.1 62.9c50.8-1.7 99.9-9.7 146.8-23.1l-31.9-55.8c-32.9 8.4-66.9 13.9-101.8 16z"/><path class="st0" d="M-78 3078.7c32.8 8.4 66.8 13.9 101.7 16l-29.6-142.2-72.1 126.2zM257.7 3057.8c32.2-12.7 62.9-28.5 91.7-46.8l-107.5-97.7 15.8 144.5zM-142.4 2045.6c-32.2 12.7-62.9 28.5-91.7 46.8l107.5 97.7-15.8-144.5zM516.9 2843.5c18.4-28.8 34.1-59.5 46.8-91.7L419.3 2736l97.6 107.5zM600.7 2517.8c-2.1-34.9-7.6-68.9-16-101.7l-126.2 72.1 142.2 29.6zM-401.6 2259.9a534.72 534.72 0 0 0-46.8 91.7l144.5 15.8-97.7-107.5zM193.3 2024.7c-32.8-8.4-66.8-13.9-101.7-16l29.6 142.2 72.1-126.2zM477 2205.1c-21.9-26.5-46.3-50.9-72.8-72.8l-59.6 132.4 132.4-59.6zM-485.4 2585.6c2.1 34.9 7.6 68.9 16 101.7l126.2-72.1-142.2-29.6zM-361.7 2898.3c21.9 26.5 46.3 50.9 72.8 72.8l59.6-132.4-132.4 59.6zM275.8 1880.4l-50.6 88.4c13.4 3.8 26.5 8.1 39.5 12.8l11.1-101.2zM-513.4 2136.8l68.5 75.5c7.8-11.5 15.9-22.7 24.5-33.6l-93-41.9zM-160.5 1880.4l11.1 101.2c13-4.7 26.1-9 39.5-12.8l-50.6-88.4zM-357.2 1980.7l41.9 93c10.9-8.5 22.1-16.7 33.6-24.5l-75.5-68.5zM472.5 1980.7l-75.5 68.5c11.5 7.8 22.7 15.9 33.6 24.5l41.9-93zM-548.3 2530.9l-99.9 20.8 99.9 20.8c-.2-6.9-.4-13.8-.4-20.8.1-7 .2-13.9.4-20.8zM728.9 2769.8l-88.4-50.6c-3.8 13.4-8.1 26.5-12.8 39.5l101.2 11.1zM36.9 3157.6l20.8 99.9 20.8-99.9c-6.9.2-13.8.4-20.8.4s-13.9-.1-20.8-.4zM728.9 2333.6l-101.2 11.1c4.7 13 9 26.1 12.8 39.5l88.4-50.6zM628.7 2136.8l-93 41.9c8.5 10.9 16.7 22.1 24.5 33.6l68.5-75.5zM-160.5 3223l50.6-88.4c-13.4-3.8-26.5-8.1-39.5-12.8l-11.1 101.2zM275.8 3223l-11.1-101.2c-13 4.7-26.1 9-39.5 12.8l50.6 88.4zM628.7 2966.6l-68.5-75.5c-7.8 11.5-15.9 22.7-24.5 33.6l93 41.9zM472.5 3122.7l-41.9-93c-10.9 8.5-22.1 16.7-33.6 24.5l75.5 68.5zM663.6 2572.5l99.9-20.8-99.9-20.8c.2 6.9.4 13.8.4 20.8s-.2 13.9-.4 20.8zM78.4 1945.8l-20.8-99.9-20.8 99.9c6.9-.2 13.8-.4 20.8-.4s13.9.1 20.8.4zM-613.6 2333.6l88.4 50.6c3.8-13.4 8.1-26.5 12.8-39.5l-101.2-11.1zM-613.6 2769.8l101.2-11.1c-4.7-13-9-26.1-12.8-39.5l-88.4 50.6zM-513.4 2966.6l93-41.9c-8.5-10.9-16.7-22.1-24.5-33.6l-68.5 75.5zM-357.2 3122.7l75.5-68.5c-11.5-7.8-22.7-15.9-33.6-24.5l-41.9 93z"/><path class="st0" d="M349.5 3011l47.6 43.2c11.5-7.8 22.7-15.9 33.6-24.5l-26.4-58.6c-17.4 14.4-35.7 27.7-54.8 39.9zM477 2898.3l58.6 26.4c8.5-10.9 16.7-22.1 24.5-33.6l-43.2-47.6c-12.1 19.1-25.5 37.4-39.9 54.8zM57.7 3095.8c-11.4 0-22.7-.4-33.9-1l13.1 62.9c6.9.2 13.8.4 20.8.4s13.9-.1 20.8-.4l13.1-62.9c-11.3.6-22.6 1-33.9 1zM57.7 2007.6c11.4 0 22.7.4 33.9 1l-13.1-62.9c-6.9-.2-13.8-.4-20.8-.4s-13.9.1-20.8.4l-13.1 62.9c11.2-.6 22.5-1 33.9-1zM404.3 2132.3l26.4-58.6c-10.9-8.5-22.1-16.7-33.6-24.5l-47.6 43.2c19.1 12.2 37.4 25.5 54.8 39.9zM257.7 2045.6l7-63.9c-13-4.7-26.1-9-39.5-12.8l-31.9 55.8c22 5.6 43.5 12.6 64.4 20.9zM-78 2024.7l-31.9-55.8c-13.4 3.8-26.5 8.1-39.5 12.8l7 63.9c20.9-8.3 42.4-15.3 64.4-20.9zM584.7 2416.1l55.8-31.9c-3.8-13.4-8.1-26.5-12.8-39.5l-63.9 7c8.2 20.8 15.2 42.3 20.9 64.4zM-234.1 2092.4l-47.6-43.2c-11.5 7.8-22.7 15.9-33.6 24.5l26.4 58.6c17.4-14.4 35.7-27.7 54.8-39.9zM563.8 2751.7l63.9 7c4.7-13 9-26.1 12.8-39.5l-55.8-31.9c-5.7 22.1-12.7 43.6-20.9 64.4zM516.9 2259.9l43.2-47.6c-7.8-11.5-15.9-22.7-24.5-33.6l-58.6 26.4c14.4 17.4 27.8 35.7 39.9 54.8zM-361.7 2205.1l-58.6-26.4c-8.5 10.9-16.7 22.1-24.5 33.6l43.2 47.6c12.2-19.1 25.5-37.4 39.9-54.8zM-142.4 3057.8l-7 63.9c13 4.7 26.1 9 39.5 12.8l31.9-55.8c-22-5.6-43.5-12.6-64.4-20.9zM-288.9 2971.1l-26.4 58.6c10.9 8.5 22.1 16.7 33.6 24.5l47.6-43.2c-19.1-12.2-37.4-25.5-54.8-39.9zM193.3 3078.7l31.9 55.8c13.4-3.8 26.5-8.1 39.5-12.8l-7-63.9c-20.9 8.3-42.4 15.3-64.4 20.9zM-401.6 2843.5l-43.2 47.6c7.8 11.5 15.9 22.7 24.5 33.6l58.6-26.4c-14.4-17.4-27.7-35.7-39.9-54.8zM601.7 2551.7c0 11.4-.4 22.7-1 33.9l62.9-13.1c.2-6.9.4-13.8.4-20.8s-.1-13.9-.4-20.8l-62.9-13.1c.7 11.2 1 22.5 1 33.9zM-486.4 2551.7c0-11.4.4-22.7 1-33.9l-62.9 13.1c-.2 6.9-.4 13.8-.4 20.8s.1 13.9.4 20.8l62.9 13.1c-.6-11.2-1-22.5-1-33.9zM-469.4 2687.3l-55.8 31.9c3.8 13.4 8.1 26.5 12.8 39.5l63.9-7c-8.2-20.8-15.2-42.3-20.9-64.4zM-448.4 2351.7l-63.9-7c-4.7 13-9 26.1-12.8 39.5l55.8 31.9c5.6-22.1 12.6-43.6 20.9-64.4z"/></svg>