<svg xmlns="http://www.w3.org/2000/svg" viewBox="0 0 128.81 1023.47"><defs><style>.cls-1,.cls-2,.cls-3{fill:#231815;}.cls-1,.cls-3,.cls-5{stroke:#231815;stroke-miterlimit:10;}.cls-3{stroke-width:0.5px;}.cls-4{fill:none;}</style></defs><title>twosun</title><g id="레이어_2" data-name="레이어 2"><g id="레이어_1-2" data-name="레이어 1"><path class="cls-1" d="M61.4,41.62,47.94,82.82a7,7,0,0,0,6.61,9.11H81.46a7,7,0,0,0,6.61-9.11L74.61,41.62A7,7,0,0,0,61.4,41.62Z"/><path class="cls-2" d="M30.63,811.11a854.83,854.83,0,0,1,25.08,136.5l4.91-.66a105.49,105.49,0,0,1,9.85-97.11H66.16A17.84,17.84,0,0,1,65.64,865l4.57.6a235.37,235.37,0,0,1-4.15-45.32,2.53,2.53,0,0,0-4.27-1.77c-9.87,10-4.82,26.5-14.55,36.12l4.18,1.1a186.45,186.45,0,0,1-2.59-42.11h-5l0,24.79,4.91-.66a128,128,0,0,1-1.48-22.29l-4.91.66A79.15,79.15,0,0,1,45.65,840l4.66-1.26a89.49,89.49,0,0,1-7.64-19.14c-.63-2.3-4.28-2.46-4.82,0a48.41,48.41,0,0,0-1,15.07h5a46.8,46.8,0,0,0-2.54-11.25l-4.57,1.93a71.92,71.92,0,0,1,6.65,18.14c.7,3.14,5.51,1.81,4.82-1.33A58.67,58.67,0,0,1,44.89,829l-4.66,1.26a132.57,132.57,0,0,1,9.32,28.07c.68,3.2,5.3,1.78,4.82-1.33a105,105,0,0,1-1-21.07l-4.91.66a172.59,172.59,0,0,1,9.36,62.66c-.12,3.22,4.88,3.21,5,0a176.6,176.6,0,0,0-9.53-64,2.51,2.51,0,0,0-4.91.66,111.56,111.56,0,0,0,1.22,22.4L54.38,857a138.34,138.34,0,0,0-9.82-29.26c-1.08-2.34-4.64-1.07-4.66,1.26a65,65,0,0,0,1.54,14.48l4.82-1.33a76.86,76.86,0,0,0-7.16-19.33c-1.3-2.46-5.55-.77-4.57,1.93a41.37,41.37,0,0,1,2.36,9.92c.33,3.16,5.31,3.22,5,0a43.63,43.63,0,0,1,.78-13.74H37.84A95.33,95.33,0,0,0,46,841.23c1.21,2.23,4.62,1.15,4.66-1.26a83.74,83.74,0,0,0-3.44-25.14,2.51,2.51,0,0,0-4.91.66,135.59,135.59,0,0,0,1.66,23.62c.44,2.83,4.91,2.09,4.91-.66l0-24.79c0-3.23-4.84-3.2-5,0A192.34,192.34,0,0,0,46.6,857.1c.34,1.91,2.94,2.33,4.18,1.1,10-9.91,4.93-26.38,14.55-36.12l-4.27-1.77A242.42,242.42,0,0,0,65.39,867c.39,2.07,3.64,2.47,4.57.6a23.32,23.32,0,0,0,.51-20.25c-.79-1.86-3.4-1.39-4.32,0a110.18,110.18,0,0,0-10.36,101c.95,2.36,5.22,2.4,4.91-.66A863.07,863.07,0,0,0,35.46,809.78c-.83-3.1-5.66-1.79-4.82,1.33Z"/><path class="cls-2" d="M30.84,92.94A58.19,58.19,0,0,1,56.72,58.31L53,56.15a53.47,53.47,0,0,1-6.25,27.39l4.66,1.26a46.06,46.06,0,0,1,4.57-15.63l-4.57-.6a46.37,46.37,0,0,1,.8,12.88,2.51,2.51,0,0,0,3.16,2.41l.54-.18a2.58,2.58,0,0,0,1.84-2.41,3.17,3.17,0,0,0-1.28-3,2.64,2.64,0,0,0-3-.39c-2.93,1.41-3.81,4.89-5.4,7.56A64.74,64.74,0,0,1,40,96l4.18,1.1a30,30,0,0,1,1.37-20.27H40.77a16.93,16.93,0,0,1-2,11.09l4.66,1.26a9.76,9.76,0,0,1,2-7.55l-4.66-1.26-.55,2.09,4.57,1.93A54.76,54.76,0,0,1,54.88,68.33l-4.27-1.77a12.85,12.85,0,0,1-3.53,9.54l4.18,2.43a136.61,136.61,0,0,1,12.5-23.6L59.19,53a72.74,72.74,0,0,1-6.54,14.37l4.66,1.26a48.47,48.47,0,0,1,6-22.72L58.76,44a44.93,44.93,0,0,1-7,12.08L56,57.17a11.47,11.47,0,0,1,1.9-9.12L53.3,46.13a115.35,115.35,0,0,1-16,29.72l4.66,1.26a18.92,18.92,0,0,1,7-14.3L44.64,61A35.65,35.65,0,0,1,37.1,83.46L41.41,86,52.35,66.53l-4.57-1.93a26.14,26.14,0,0,1-7.39,11.9l3.93,3A109.31,109.31,0,0,1,56.11,62l-4.18-2.43c-1.75,11-11,15.56-18.67,22.36l4.18,2.43c8.71-21,40.64-32.06,35-58.77-.48-2.27-3.44-2.23-4.57-.6L43.22,60.45l4.57,1.93A88.77,88.77,0,0,1,69.84,29.52l-4.18-1.1a47.07,47.07,0,0,1-.32,16.78L69,43.7a4.78,4.78,0,0,1-2.23-4.83l-4.27,1.77c.8.67,4.79,3.3,3.6,4.85-2,2.55,2.38,5,4.32,2.52,3.23-4.2-1.31-8.33-4.38-10.91a2.53,2.53,0,0,0-4.27,1.77A10.31,10.31,0,0,0,66.49,48a2.51,2.51,0,0,0,3.67-1.49,54.33,54.33,0,0,0,.32-19.44c-.31-2-2.94-2.28-4.18-1.1A94.36,94.36,0,0,0,43,61.05C41.9,63.86,46,65.16,47.54,63L72.17,27.47l-4.57-.6C70.38,40,60.2,50.82,51.5,59.13,44,66.27,36.65,73.27,32.62,83c-1,2.5,2.51,3.91,4.18,2.43,8.45-7.52,18-12.37,20-24.57.34-2.16-2.4-4.59-4.18-2.43A115.94,115.94,0,0,0,40,77a2.51,2.51,0,0,0,3.93,3A31.34,31.34,0,0,0,52.6,65.94c.81-2.71-3.18-4.4-4.57-1.93L37.1,83.46c-1.62,2.89,2.42,5,4.32,2.52A40.07,40.07,0,0,0,49.64,61a2.53,2.53,0,0,0-4.27-1.77,23.72,23.72,0,0,0-8.43,17.84c-.07,2.7,3.29,3.11,4.66,1.26A119.74,119.74,0,0,0,58.12,47.45c1-2.78-3.08-4.19-4.57-1.93a16.57,16.57,0,0,0-2.4,13c.35,1.74,3,2.55,4.18,1.1a52.86,52.86,0,0,0,8.25-14.29c1-2.66-3.23-4.38-4.57-1.93a54.07,54.07,0,0,0-6.7,25.25A2.52,2.52,0,0,0,57,69.9a78.8,78.8,0,0,0,7-15.56c.92-2.8-3.07-4.21-4.57-1.93a143,143,0,0,0-13,24.8c-1,2.35,2.58,4.19,4.18,2.43a18,18,0,0,0,5-13.08c0-2.05-2.77-3.44-4.27-1.77A61.77,61.77,0,0,0,40,83.08c-1.09,2.68,3.16,4.29,4.57,1.93a8,8,0,0,0,1.24-4.61c0-2.64-3.25-3.18-4.66-1.26a13.62,13.62,0,0,0-2.7,10.07c.26,2.27,3.36,3.65,4.66,1.26a22.44,22.44,0,0,0,2.5-14.94c-.44-2.76-4-2-4.82,0a34.35,34.35,0,0,0-1.37,22.92,2.52,2.52,0,0,0,4.18,1.1,73.93,73.93,0,0,0,6.55-8.14q1.38-2,2.62-4.13c.84-1.43,1.61-4.31,3.19-5.07l-3-.39-.18-.56,1.84-2.41L54,79l3.16,2.41a51.68,51.68,0,0,0-1-14.21,2.52,2.52,0,0,0-4.57-.6A53.25,53.25,0,0,0,46.37,84.8c-.27,2.5,3.55,3.36,4.66,1.26A58.78,58.78,0,0,0,58,56.15,2.52,2.52,0,0,0,54.19,54,63.41,63.41,0,0,0,26,91.61c-.83,3.11,4,4.44,4.82,1.33Z"/><path class="cls-2" d="M68.88,25.8a103,103,0,0,1,4.87,22.37c.75,7.67.45,15.4,1.11,23.08,1,11.63,4.5,23.45,14.05,30.9a2.54,2.54,0,0,0,4.27-1.77c2.06-22.4-6-43.65-14.07-64.11a2.5,2.5,0,0,0-4.82,1.33,194.32,194.32,0,0,1,1.44,40.1h5a61.87,61.87,0,0,1,3.94-23.3l-4.57.6a28.31,28.31,0,0,1,5.17,21.35l4.57-.6a29.82,29.82,0,0,1-4.62-17.18l-4.91.66a16.74,16.74,0,0,1,1.11,8.48c-.37,3.19,4.63,3.16,5,0a19.45,19.45,0,0,0-1.29-9.81c-1-2.53-4.82-2.31-4.91.66a34.59,34.59,0,0,0,5.3,19.7c1,1.66,4.2,1.64,4.57-.6a33.33,33.33,0,0,0-5.67-25.21,2.54,2.54,0,0,0-4.57.6A65.59,65.59,0,0,0,75.74,77.7c.08,3.24,4.79,3.19,5,0a200.48,200.48,0,0,0-1.62-41.43l-4.82,1.33c7.93,20.06,15.92,40.81,13.89,62.78l4.27-1.77c-10.86-8.46-12.56-22.2-13-35.09C79,50.1,77.95,37.32,73.7,24.47c-1-3-5.84-1.74-4.82,1.33Z"/><path class="cls-2" d="M81.62,36.68a69.19,69.19,0,0,1-6.12-13.31c-1-3-5.85-1.73-4.82,1.33A75.53,75.53,0,0,0,77.31,39.2c1.64,2.77,6,.25,4.32-2.52Z"/><rect class="cls-1" x="29.52" y="464.4" width="47.48" height="238.54" rx="12" ry="12"/><path class="cls-2" d="M47.29,457.23a76.14,76.14,0,0,0-5.55,44.91l1.75-3.08c-4.7,1.14-7.28-17.87-7.72-20.78A105.77,105.77,0,0,1,35,454H30l-.83,38,4.91-.66a115.78,115.78,0,0,1-.68-44.29c.56-3.15-4.26-4.5-4.82-1.33a122.47,122.47,0,0,0,.68,46.95c.59,2.83,4.85,2.08,4.91-.66L35,454c.07-3.25-4.75-3.17-5,0a109.21,109.21,0,0,0,2.49,33.74c1.39,5.87,3.65,18.2,12.28,16.1a2.56,2.56,0,0,0,1.75-3.08,70.21,70.21,0,0,1,5-41.06c1.3-2.91-3-5.46-4.32-2.52Z"/><path class="cls-2" d="M26.11,685.79,40.31,741c.81,3.15,5.43,1.8,4.82-1.33a195.71,195.71,0,0,1-2.67-56.9l-4.91.66a94.33,94.33,0,0,1-.84,31.47h4.82a93,93,0,0,1-5.17-36.14h-5a43.53,43.53,0,0,1-1,12.36l2.41-1.84c-5.59.65-1.55-19-1.19-21.69q1.78-13.41,4.42-26.7a441.11,441.11,0,0,1,12.74-49.08c1-3.07-3.84-4.39-4.82-1.33a439.3,439.3,0,0,0-15.13,62.25c-1.64,9.86-3.48,20.06-3.93,30.05-.23,4.92,1.66,12.23,7.92,11.5a2.59,2.59,0,0,0,2.41-1.84,48.67,48.67,0,0,0,1.19-13.69,2.5,2.5,0,0,0-5,0,96.75,96.75,0,0,0,5.35,37.47c.75,2.13,4.31,2.61,4.82,0a101.81,101.81,0,0,0,.84-34.13c-.43-3-4.66-1.91-4.91.66A200.27,200.27,0,0,0,40.31,741l4.82-1.33L30.94,684.46c-.8-3.11-5.62-1.79-4.82,1.33Z"/><path class="cls-2" d="M36.69,393.24c-.45,2.65-9.44-5.45-10.26-6.33a41.47,41.47,0,0,1-7-10.27c-1.88-3.93-3.47-8.52-3.33-12.93.16-5.27,3.91-10.91,9.84-9.53,3.13.73,4.47-4.09,1.33-4.82a12.92,12.92,0,0,0-14.64,7.36c-3.23,6.89-.87,15.23,2.15,21.75A46,46,0,0,0,29.14,396c3.47,2.54,11.32,4.73,12.38-1.45.54-3.15-4.28-4.5-4.82-1.33Z"/><path class="cls-2" d="M87.94,574.82c3.29,2.13,7.05,5.08,8,9.13.91,3.82-2.7,9.64-7.14,7.38L90,594.15a9.83,9.83,0,0,1,10.27-7l-2.16-3.76-1.46,1.09c-3.22,0-3.22,5,0,5a5.87,5.87,0,0,0,5.78-3.57,2.54,2.54,0,0,0-2.16-3.76,14.85,14.85,0,0,0-15.09,10.66,2.53,2.53,0,0,0,1.15,2.82c6,3.05,13-1,14.6-7.36,2-7.61-4.69-14.07-10.43-17.78-2.71-1.75-5.22,2.57-2.52,4.32Z"/><path class="cls-2" d="M78.47,31.49a30.48,30.48,0,0,1-4.68-21.36l-4.91-.66A53.92,53.92,0,0,1,52.72,43.52l4.18,2.43c2.88-13.16,8.36-25.4,14-37.59L66.3,6.44a69.75,69.75,0,0,1-7.8,22.25l4.66,1.26A37.1,37.1,0,0,1,69.26,7.4l-4.57-.6,2.18,8.87c.67,2.73,5,2.16,4.91-.66-.06-3.88-.13-7.9,2.84-10.81L70.35,2.43A85.29,85.29,0,0,0,77,46.07c1.27,2.95,5.58.4,4.32-2.52a80.48,80.48,0,0,1-6-41.12C75.6.18,72.5-.74,71.08.66c-4,3.89-4.38,9.06-4.3,14.35l4.91-.66L69.51,5.47c-.54-2.18-3.44-2.33-4.57-.6a41.76,41.76,0,0,0-6.78,25.07c.12,2.38,3.4,3.53,4.66,1.26a73.68,73.68,0,0,0,8.3-23.44c.44-2.56-3.29-4.71-4.57-1.93C60.76,18.41,55,31,52.08,44.62a2.52,2.52,0,0,0,4.18,2.43A59.24,59.24,0,0,0,73.87,9.46C74.11,6.68,69.39,6,69,8.79A35.77,35.77,0,0,0,74.15,34c1.72,2.71,6.05.2,4.32-2.52Z"/><polygon class="cls-1" points="72.78 911.87 17.95 930.22 6.82 985.74 50.51 1022.9 105.34 1004.56 116.47 949.04 72.78 911.87"/><path class="cls-1" d="M41.08,949.21l-3.43-.35A10.68,10.68,0,0,1,28,937.25L50.75,722.38a10.81,10.81,0,0,1,11.9-9.44l3.43.35a10.68,10.68,0,0,1,9.67,11.62L53,939.77A10.81,10.81,0,0,1,41.08,949.21Z"/><path class="cls-1" d="M94.25,948.93l-14.78,5A9.12,9.12,0,0,1,68,948.45L55.56,913.3a8.79,8.79,0,0,1,5.59-11.21l14.78-5a9.12,9.12,0,0,1,11.49,5.46l12.43,35.15A8.79,8.79,0,0,1,94.25,948.93Z"/><path class="cls-1" d="M86.64,784.27,74,786a12,12,0,0,1-13.54-10L53,723.74a11.8,11.8,0,0,1,10.23-13.22l12.67-1.72a12,12,0,0,1,13.54,10l7.45,52.26A11.8,11.8,0,0,1,86.64,784.27Z"/><path class="cls-1" d="M76.38,832.86l-3.58-.55a11.16,11.16,0,0,1-9.47-12.68l8.57-53.35a11.37,11.37,0,0,1,13-9.24l3.58.55a11.16,11.16,0,0,1,9.47,12.68l-8.57,53.35A11.37,11.37,0,0,1,76.38,832.86Z"/><path class="cls-2" d="M98.74,964.5l16.9,13c1.5,1.16,3.2,2.28,4.61,3.55s3.72,2.4,2.08,4.07-6.7,2.1-8.93,2.62c-11.7,2.72-23.61,4.08-34.5,9.48-2.66,1.32-.72,5.11,1.93,4.57,7.6-1.56,15.58-2.61,23-5,6.51-2.12,11.76-6.19,17-10.5,1.37-1.13.65-3.06-.51-3.93a80.8,80.8,0,0,0-19.48-10.73c-1.94-.75-4.12,2-2.82,3.67a21.86,21.86,0,0,0,3.8,4.2c.73.57,6.94,3.75,7,3.68l2.82-1.15.12.89-3.93-.51a17.35,17.35,0,0,1,2.25,3.86c1,2.4,4.63,1,4.66-1.26l.08-6.57h-5l0,5.2c0,3.23,4.87,3.21,5,0l.13-3.19-3.16,2.41a7,7,0,0,1,3.17,2c2.35,2.19,5.89-1.33,3.54-3.54a15.07,15.07,0,0,0-5.37-3.26c-1.6-.58-3.11.91-3.16,2.41l-.13,3.19h5l0-5.2c0-3.22-5-3.22-5,0l-.08,6.57,4.66-1.26a17.35,17.35,0,0,0-2.25-3.86c-.88-1.16-2.78-1.87-3.93-.51-2.33,2.77-1.42,6.35,2.09,7.47a2.55,2.55,0,0,0,2.82-1.15,5,5,0,0,0-.35-6.17,7.84,7.84,0,0,0-3.44-2.15c-3.09-1.22-4.88-1.84-7-4.61l-2.82,3.67a76.3,76.3,0,0,1,18.29,10.23l-.51-3.93c-5.51,4.56-10.86,8.32-17.89,10.08-6.54,1.64-13.24,2.79-19.84,4.15l1.93,4.57c7.89-3.91,16.46-5.56,25-7.25,6.2-1.22,15.16-1.72,20.18-6,4.45-3.77,1.28-7.61-2.32-10.39l-23-17.76c-2.55-2-5,2.38-2.52,4.32Z"/><path class="cls-2" d="M20.83,947.75c-3.7-1.38-19.78-8.47-17.56,1.42,1,4.59,4,9.33,6.13,13.47a152.35,152.35,0,0,0,8.91,14.83l4.32-2.52c-2.54-3.73-2.06-8.46-2.66-12.76a50,50,0,0,0-2.58-10.45c-2-5.47-5.42-7-11.11-6.95a2.53,2.53,0,0,0-2.5,2.5,69.05,69.05,0,0,1-.93,16.61l3.67-1.49c-2.72-1.66-.39-5.65.16-7.65a13.1,13.1,0,0,0,.51-5.49c-.39-3.1-5.23-3.27-5,0l.73,10.3c.18,2.6-.07,5.78.68,8.29,1.27,4.23,7.57,7,10.91,9.37,2.3,1.63,4.27-1.42,3.42-3.42l-4.26-10-3.93,3,1.6,3.66L16,969.2a77.87,77.87,0,0,1-4.93-12.1c-.83-2.63-4.94-2.23-4.91.66l0,4,4.91-.66a18,18,0,0,1-.14-5.9l-4.27,1.77a48.68,48.68,0,0,1,5.44,5.62c1.5,1.82,4.13.18,4.27-1.77l.67-9.12-4.66,1.26a6.59,6.59,0,0,1,1.21,3.86L17.92,955a17.1,17.1,0,0,1-3.07-6,2.53,2.53,0,0,0-4.57-.6l-1.15,1.33,3.93.51a30.36,30.36,0,0,1-2.24-3.42,2.53,2.53,0,0,0-4.57.6,4.65,4.65,0,0,0,.14,3.67c1.16,3,6,1.67,4.82-1.33l-.14-1-4.57.6a30.36,30.36,0,0,0,2.24,3.42,2.55,2.55,0,0,0,3.93.51A10.9,10.9,0,0,0,14.6,951l-4.57-.6a23.43,23.43,0,0,0,4.35,8.17c1.34,1.68,4.41.29,4.27-1.77a14.09,14.09,0,0,0-1.9-6.38c-1.3-2.27-4.49-1.11-4.66,1.26l-.67,9.12L15.7,959a48.68,48.68,0,0,0-5.44-5.62A2.54,2.54,0,0,0,6,955.17a23.27,23.27,0,0,0,.32,7.23c.53,2.8,4.94,2.11,4.91-.66l0-4-4.91.66a85.84,85.84,0,0,0,5.43,13.29c1.1,2.16,4.84,1.2,4.66-1.26a10.77,10.77,0,0,0-3.07-7.2c-2.07-2.29-4.95.63-3.93,3l4.26,10L17,972.91c-1.82-1.29-3.74-2.51-5.49-3.9-2.39-1.89-3.15-2.68-3.36-5.7l-1-14h-5c.76,6-5.35,13.08,1.81,17.45a2.52,2.52,0,0,0,3.67-1.49,74.73,74.73,0,0,0,1.1-17.94l-2.5,2.5c3.89-.07,5.7,1.42,6.89,5a47.1,47.1,0,0,1,2.12,10.12c.45,4.48.39,8.7,3,12.55,1.8,2.64,6.13.15,4.32-2.52a150.79,150.79,0,0,1-10.55-18.07c-.67-1.36-1.32-2.73-1.94-4.11q-.69-1.51-1.32-3-1-2.49-.25-.53c2.9-.42,8.21,2.36,10.94,3.38,3,1.13,4.32-3.7,1.33-4.82Z"/><path class="cls-2" d="M33,927.7c.2-3.32.28-6.62.22-9.94L28.53,919a15.22,15.22,0,0,1,1.58,6.69L35,925a14.22,14.22,0,0,1-.74-6.51l-4.66,1.26,1.17,2.53c.9,2.43,5.24,2.35,4.91-.66a80.84,80.84,0,0,0-1.5-9.06c-.65-2.88-4.72-2-4.91.66l-.38,5.42,4.66-1.26a12.44,12.44,0,0,1-1.85-7.64h-5l.58,4.55,4.91-.66a42.67,42.67,0,0,1-1-7.7l-4.66,1.26L29,911.35c1.5,2.52,5.11.8,4.57-1.93l-1.2-6-3.08,3.08c2.86.91,5-.06,6.7-2.37l-4.32-2.52-1.22,2.53h4.32l.23-4.17-4.57-.6.54,1.4a2.55,2.55,0,0,0,4.18,1.1,41,41,0,0,0,9-9.87c1.77-2.7-2.56-5.21-4.32-2.52a36.65,36.65,0,0,1-8.19,8.86l4.18,1.1-.54-1.4a2.54,2.54,0,0,0-4.57-.6,8.38,8.38,0,0,0-.23,9.22,2.52,2.52,0,0,0,4.32,0L36,904.09a2.5,2.5,0,0,0-4.32-2.52l-1.06.07c-1.94-.61-3.43,1.31-3.08,3.08l1.2,6,4.57-1.93-2.45-4.12c-1.23-2.06-4.77-1.28-4.66,1.26a50.18,50.18,0,0,0,1.21,9c.61,2.69,5.27,2.17,4.91-.66l-.58-4.55c-.4-3.13-4.81-3.3-5,0a17,17,0,0,0,2.54,10.16,2.52,2.52,0,0,0,4.66-1.26l.38-5.42-4.91.66a68.85,68.85,0,0,1,1.32,7.73l4.91-.66a24.65,24.65,0,0,0-1.67-3.72c-1.29-2.37-4.42-1-4.66,1.26a17.45,17.45,0,0,0,.92,7.84c.88,2.54,5,2.3,4.91-.66a22.4,22.4,0,0,0-2.26-9.21c-1.08-2.3-4.7-1.1-4.66,1.26.05,3.32,0,6.62-.22,9.94s4.81,3.2,5,0Z"/><path class="cls-2" d="M37,868a26.57,26.57,0,0,0-.9-10.65c-1-3.47-3.4-7-4-10.55l-.64,2.43c2.11-1.65,5.64-2.53,8.12-3.6l-3.76-2.16a107,107,0,0,1-2.18,28.85h4.82a31.82,31.82,0,0,1-1.23-16.6C38,852,38.93,848.8,38.37,845c-.35-2.39-4.45-2.38-4.82,0a30.58,30.58,0,0,0-.37,6.52c.18,3.2,5.18,3.22,5,0a23.8,23.8,0,0,1,.19-5.19H33.55c.68,4.61-1.65,9.48-1.86,14.14a36.51,36.51,0,0,0,2,13.19c.73,2.19,4.27,2.56,4.82,0a112.23,112.23,0,0,0,2.35-30.18,2.54,2.54,0,0,0-3.76-2.16c-3,1.3-6.54,2.35-9.14,4.38a2.51,2.51,0,0,0-.64,2.43c.51,3,2.45,5.84,3.43,8.76A24.69,24.69,0,0,1,32,868c-.38,3.19,4.62,3.16,5,0Z"/><path class="cls-2" d="M82.43,826.38c3.18,29.4,6.23,59,3.1,88.51h5a438,438,0,0,1,5.38-94.77,2.54,2.54,0,0,0-3.67-2.82A14.62,14.62,0,0,0,84,830.08c-.16,3,3.93,3.08,4.91.66A36,36,0,0,1,93.27,823l-4.57-.6a12.84,12.84,0,0,1,.48,5.7c-.35,2.86,4.16,3.29,4.91.66l3.64-12.72c.77-2.68-3.23-4.47-4.57-1.93a22.83,22.83,0,0,1-6.88,8.06L90,823.69c-.79-3.49,2.12-5.87,5.36-5.67s3.2-4.8,0-5a9.76,9.76,0,0,0-10.18,12,2.51,2.51,0,0,0,3.67,1.49,28.34,28.34,0,0,0,8.68-9.85l-4.57-1.93-3.64,12.72,4.91.66a15.92,15.92,0,0,0-.66-7,2.54,2.54,0,0,0-4.57-.6,40.94,40.94,0,0,0-4.88,8.92l4.91.66a9.65,9.65,0,0,1,5.78-8.46l-3.67-2.82a444,444,0,0,0-5.56,96.09c.17,3.27,4.67,3.16,5,0,3.13-29.54.07-59.12-3.1-88.51-.34-3.17-5.35-3.2-5,0Z"/><path class="cls-2" d="M33.09,717.42c-4.53,4.68-5,10.89-4.3,17.1a59,59,0,0,0,2.3,11c1.16,3.72,4.14,8,4.49,11.81l4.66-1.26A33.33,33.33,0,0,1,37,722.87c1.34-2.9-3-5.45-4.32-2.52-2.45,5.29-4.87,10.8-4.13,16.77.72,5.8,3.89,10.65,7.42,15.15,2,2.53,5.5-1,3.54-3.54-2.61-3.33-5.16-7.15-5.9-11.41-.89-5.11,1.3-9.93,3.39-14.45l-4.32-2.52a38.33,38.33,0,0,0,3.25,38.27c1.28,1.82,4.91,1.44,4.66-1.26-.53-5.72-4.24-10.92-5.63-16.55C33.44,734.68,31.73,726,36.62,721c2.24-2.31-1.29-5.85-3.54-3.54Z"/><path class="cls-2" d="M86.89,729.56a7.47,7.47,0,0,1,5.35,1.74l.51-3.93a20.69,20.69,0,0,1-6.58,2.7c-3.14.71-1.81,5.53,1.33,4.82a25,25,0,0,0,7.78-3.2,2.52,2.52,0,0,0,.51-3.93,12.62,12.62,0,0,0-8.89-3.2c-3.21.14-3.22,5.14,0,5Z"/><path class="cls-2" d="M37.62,610.31c-6.16-7.25-8.55-16.38-10.77-25.43l-1.54,1.54a13.31,13.31,0,0,1,7.2,6.76l2-1.51-4.57-5a1.26,1.26,0,0,0-2.13.88,24.76,24.76,0,0,0,1.36,7l2.28-1-2.75-5-2,1.51,1.07,1.32c1,1.25,2.78-.53,1.77-1.77l-1.07-1.32c-.92-1.13-2.62.31-2,1.51l2.75,5c.67,1.22,2.76.39,2.28-1a21.11,21.11,0,0,1-1.27-6.3l-2.13.88,4.57,5c1,1.1,2.57-.3,2-1.51A15.9,15.9,0,0,0,26,584c-.93-.38-1.74.71-1.54,1.54,2.33,9.53,4.93,18.92,11.41,26.53,1,1.23,2.8-.55,1.77-1.77Z"/><path class="cls-2" d="M101.47,416.09a24.49,24.49,0,0,1-8.84,0c-1.57-.28-2.25,2.12-.66,2.41a28,28,0,0,0,10.17,0c1.58-.29.91-2.7-.66-2.41Z"/><path class="cls-2" d="M98.05,524.87l-12.78-4.29c-1.53-.51-2.18,1.9-.66,2.41l12.78,4.29c1.53.51,2.18-1.9.66-2.41Z"/><ellipse class="cls-3" cx="93.32" cy="557.12" rx="6.71" ry="17.91"/><path class="cls-4" d="M102.6,240.72a3.1,3.1,0,0,1,.53.05c-.63-1.59-1.24-3.19-1.82-4.8l1.08,9.86Z"/><path class="cls-4" d="M103.13,240.77a3.1,3.1,0,0,0-.53-.05l-.22,5.11.07.65a11.83,11.83,0,0,1,4.24,5.65c-.12-2.19-.32-4.38-.63-6.52a3,3,0,0,1-.48,1Q104.3,243.7,103.13,240.77Z"/><path class="cls-4" d="M103.13,240.77q1.17,2.93,2.44,5.82a3,3,0,0,0,.48-1q-.24-1.62-.58-3.2A3.69,3.69,0,0,0,103.13,240.77Z"/><path class="cls-4" d="M103.13,240.77a3.69,3.69,0,0,1,2.35,1.64,33,33,0,0,0-4.76-11.79l.58,5.35C101.89,237.58,102.5,239.18,103.13,240.77Z"/><path class="cls-4" d="M93.65,140a8,8,0,0,1-2.81,6.69l-.07.85a11.39,11.39,0,0,1,1.34,4.23l.22,2.05c.24-1.77.49-3.54.79-5.3.71-4.31,1.6-8.62,1.54-13a31.48,31.48,0,0,0-2.06-10.7l-1.76,21.85A8,8,0,0,0,93.65,140Z"/><path class="cls-4" d="M105.48,242.41q.34,1.58.58,3.2A3.93,3.93,0,0,0,105.48,242.41Z"/><path class="cls-4" d="M103.29,478.13l3-15.89c1.23-6.53,2.46-13.25,1.16-19.77-1.1-5.51-3.89-10.43-6.87-15.29L97.8,497.28C100.62,491.39,102.08,484.57,103.29,478.13Z"/><path class="cls-5" d="M42.48,658.81l3.69-93.11a12.08,12.08,0,0,1-4.76-3.7L29.78,808.1a11.31,11.31,0,0,0,10.91,11.67l3.64.16a11.61,11.61,0,0,0,3.35-.34V668.89A11.63,11.63,0,0,1,42.48,658.81Z"/><path class="cls-5" d="M81.2,770.9a9.39,9.39,0,0,0,5.11-8.77L81.56,671.7l-.36.07Z"/><path class="cls-5" d="M74.11,772.16A9.58,9.58,0,0,1,64,763.24l-2.91-55.39L56.29,809.29a11.28,11.28,0,0,1-8.61,10.31V981.29a12,12,0,0,0,12,12H69.2a12,12,0,0,0,12-12V770.9a9.71,9.71,0,0,1-4,1.1Z"/><path class="cls-5" d="M56.29,809.29l4.79-101.44-1.92-36.69L54,671a12.09,12.09,0,0,1-6.33-2.08V819.6A11.28,11.28,0,0,0,56.29,809.29Z"/><path class="cls-5" d="M78.87,671.9l-16.07-.61-1.73,36.55L64,763.24a9.58,9.58,0,0,0,10.12,8.91l3.06-.15a9.71,9.71,0,0,0,4-1.1V671.76A12.22,12.22,0,0,1,78.87,671.9Z"/><polygon class="cls-5" points="61.08 707.85 62.81 671.3 59.16 671.16 61.08 707.85"/><path class="cls-5" d="M89.72,145.94a11.69,11.69,0,0,1,.73,1l.39-.31,1.76-21.85a33.19,33.19,0,0,0-3.15-6.26Z"/><path class="cls-5" d="M34.19,195.3a9.52,9.52,0,0,1,9.13-9.88l3.06-.15a9.58,9.58,0,0,1,10.12,8.91L58,223.56a11.48,11.48,0,0,1,10.24-7l-6.73-61.61a11.82,11.82,0,0,1,10.66-12.89l6.69-.7a12.14,12.14,0,0,1,10.82,4.59l-.27-27.37a33.19,33.19,0,0,1,3.15,6.26l2.1-26.16a11.84,11.84,0,0,0-11-12.59L40.77,82.79a12,12,0,0,0-12.9,10.76l-12.4,154.2a64.92,64.92,0,0,1,22.05,11.07Z"/><path class="cls-5" d="M90.84,146.68l-.39.31c.11.18.22.36.32.54Z"/><path class="cls-5" d="M70.95,243.27h.26l-2.92-26.72a11.48,11.48,0,0,0-10.24,7l1.41,26.84A12.05,12.05,0,0,1,70.95,243.27Z"/><path class="cls-5" d="M53.92,275q.52-.29,1.07-.52l2.24-47.33a10.83,10.83,0,0,1,.83-3.64l-1.54-29.37a9.58,9.58,0,0,0-10.12-8.91l-3.06.15a9.52,9.52,0,0,0-9.13,9.88l3.33,63.52c1.46,1.11,2.89,2.26,4.26,3.46A104.32,104.32,0,0,1,53.92,275Z"/><path class="cls-5" d="M55,274.53a11.88,11.88,0,0,1,2.75-.79l.76-19.22a11.35,11.35,0,0,1,1-4.12L58,223.56a10.83,10.83,0,0,0-.83,3.64Z"/><path class="cls-5" d="M55,274.53q-.55.23-1.07.52l1,1.23Z"/><path class="cls-5" d="M57.5,279.65l.23-5.91a11.88,11.88,0,0,0-2.75.79l-.08,1.75Q56.22,277.94,57.5,279.65Z"/><path class="cls-5" d="M20.74,344l-1.4-13.24-.34-.57Q20,337.07,20.74,344Z"/><path class="cls-5" d="M18.27,325.19c0-.54.06-1.08.08-1.62l-.35-.18C18.09,324,18.17,324.59,18.27,325.19Z"/><path class="cls-5" d="M17.8,332.69c.11-1.37.2-2.73.29-4.1-.29-.53-.58-1.07-.86-1.61Q17.46,329.84,17.8,332.69Z"/><path class="cls-5" d="M17,322.86l-.44-.22.35,3.66.36.68Q17.07,324.92,17,322.86Z"/><path class="cls-5" d="M18.27,325.19q.38,2.49.74,5l.34.57-.74-7-.25-.14C18.32,324.11,18.29,324.65,18.27,325.19Z"/><path class="cls-5" d="M41.75,339.4a99.66,99.66,0,0,0-10.19-7.89,132.52,132.52,0,0,0-13-7.8l.74,7a74.85,74.85,0,0,0,7,9.88,74.85,74.85,0,0,1-7-9.88L20.74,344Q20,337.07,19,330.18c-.31-.53-.62-1.05-.91-1.59-.08,1.37-.18,2.73-.29,4.1q-.34-2.85-.57-5.71l-.36-.68L39,556.09A11.44,11.44,0,0,0,41.41,562l5.7-120.59Z"/><path class="cls-5" d="M18,323.39l-1-.52q.11,2.06.27,4.11c.28.54.56,1.08.86,1.61.07-1.13.12-2.27.18-3.4C18.17,324.59,18.09,324,18,323.39Z"/><path class="cls-5" d="M18.09,328.59c.3.53.61,1.06.91,1.59q-.35-2.5-.74-5C18.21,326.32,18.16,327.45,18.09,328.59Z"/><path class="cls-5" d="M46.17,565.7l1.51-38V452.37l-.57-11L41.41,562A12.08,12.08,0,0,0,46.17,565.7Z"/><path class="cls-5" d="M47.68,345.34c-.44-.5-.87-1-1.33-1.48-1.46-1.56-3-3-4.6-4.46l5.35,102,.57-12.17Z"/><polygon class="cls-5" points="47.1 441.42 47.68 452.37 47.68 429.25 47.1 441.42"/><polygon class="cls-5" points="47.68 452.37 47.68 527.65 49.38 484.75 47.68 452.37"/><path class="cls-5" d="M47.68,429.25l3.75-79.35q-1.8-2.34-3.75-4.56Z"/><path class="cls-5" d="M54.55,354.16Q53,352,51.43,349.9l-3.75,79.35v23.12l1.7,32.38Z"/><path class="cls-5" d="M102.46,246.49l-.07-.65,0,.59Z"/><path class="cls-5" d="M96.42,238.58q.46,2.91,1,5.8a12.06,12.06,0,0,1,3.52,1.18A52.56,52.56,0,0,0,96.42,238.58Z"/><path class="cls-5" d="M101.31,236l-.58-5.35a23.79,23.79,0,0,0-2.12-2.68Q99.86,232,101.31,236Z"/><path class="cls-5" d="M90.77,147.54,83,243.72l12.77.48a12.19,12.19,0,0,1,1.59.18q-.52-2.9-1-5.8c-.23-.3-.46-.6-.69-.9.24.3.46.6.69.9q-1.12-7-1.88-14.14a22.67,22.67,0,0,1,4.06,3.5,173.85,173.85,0,0,1-6.27-74.12l-.22-2.05A11.39,11.39,0,0,0,90.77,147.54Z"/><path class="cls-5" d="M98.61,227.94a23.79,23.79,0,0,1,2.12,2.68l-8.39-76.81A173.85,173.85,0,0,0,98.61,227.94Z"/><path class="cls-5" d="M102.36,246.42l0-.59L101.31,236q-1.45-4-2.7-8a22.67,22.67,0,0,0-4.06-3.5q.76,7.09,1.88,14.14a52.56,52.56,0,0,1,4.5,7A12.09,12.09,0,0,1,102.36,246.42Z"/><path class="cls-5" d="M90.45,147a11.69,11.69,0,0,0-.73-1l0,1.54A7.55,7.55,0,0,0,90.45,147Z"/><path class="cls-5" d="M72.82,216.72a11.31,11.31,0,0,1,10.91,11.67L83,243.72h0l7.73-96.19c-.1-.19-.21-.36-.32-.54a7.55,7.55,0,0,1-.72.49l0-1.54a12.14,12.14,0,0,0-10.82-4.59l-6.69.7a11.82,11.82,0,0,0-10.66,12.89l6.73,61.61c.3,0,.59,0,.9,0Z"/><path class="cls-5" d="M83,243.72l.72-15.33a11.31,11.31,0,0,0-10.91-11.67l-3.64-.16c-.3,0-.6,0-.9,0l2.92,26.72Z"/><path class="cls-5" d="M106.72,263.31a52,52,0,0,0-4-14l.86,7.91A11.82,11.82,0,0,1,93,270.13l-6.69.7a12.16,12.16,0,0,1-4.54-.39l-.65,13.67a11.93,11.93,0,0,1,.1,1.46v30.14l8.54,13.44a169.37,169.37,0,0,0,13.94,19.6l.69-17.43a32.11,32.11,0,0,1-5.44-1.83,15.18,15.18,0,0,0-3.77,0,15.18,15.18,0,0,1,3.77,0l-1-.46,2.05.63a15,15,0,0,1,2.85.88l-2.85-.88c-.34-.07-.69-.13-1-.17a32.11,32.11,0,0,0,5.44,1.83l3-75a11.33,11.33,0,0,0-.65-4.22C106.89,255.9,106.85,259.69,106.72,263.31Z"/><path class="cls-5" d="M102.46,246.49l.31,2.84a52,52,0,0,1,4,14c.13-3.62.17-7.41,0-11.18A11.83,11.83,0,0,0,102.46,246.49Z"/><path class="cls-5" d="M100,329.66l2.85.88A15,15,0,0,0,100,329.66Z"/><path class="cls-5" d="M97.92,329l1,.46c.35,0,.7.1,1,.17Z"/><path class="cls-5" d="M81.2,389.56q.74.69,1.49,1.36c-.47-.68-1-1.33-1.49-2Z"/><path class="cls-5" d="M88.39,395.42a63,63,0,0,1-5.7-4.5c5.4,7.71,7.8,17.89,12.17,26.51,1.69,3.34,3.74,6.53,5.71,9.75l1-24.32A98.72,98.72,0,0,1,88.39,395.42Z"/><path class="cls-5" d="M82.69,390.91q-.76-.67-1.49-1.36V664.78l.36,6.92a11.85,11.85,0,0,0,9.77-11L97.8,497.28a27.15,27.15,0,0,1-9.32,11.26,27.15,27.15,0,0,0,9.32-11.26l2.78-70.09c-2-3.22-4-6.42-5.71-9.75C90.49,408.81,88.09,398.62,82.69,390.91Z"/><path class="cls-5" d="M46.17,565.7l-3.69,93.11a11.63,11.63,0,0,0,5.19,10.08V566.23A12.15,12.15,0,0,1,46.17,565.7Z"/><path class="cls-5" d="M80.08,280.55a11.86,11.86,0,0,1,1,3.56l.65-13.67c-.28-.08-.56-.17-.83-.27Z"/><path class="cls-5" d="M81.2,671.76l.36-.07-.36-6.92Z"/><path class="cls-5" d="M81.2,315.71V285.56a11.93,11.93,0,0,0-.1-1.46l-1.38,29.27Z"/><path class="cls-5" d="M76.35,384.61l-4.67,98.82L73.8,523.8l2.78,28.84a11.36,11.36,0,0,1-1,5.79L81.2,664.78V389.56Q78.67,387.19,76.35,384.61Z"/><path class="cls-5" d="M76.36,384.39v.22q2.32,2.58,4.85,4.94v-.61A26.05,26.05,0,0,0,76.36,384.39Z"/><path class="cls-5" d="M78.66,298.18a11.54,11.54,0,0,1-3.77,7.6l4.82,7.59,1.38-29.27a11.86,11.86,0,0,0-1-3.56Z"/><path class="cls-5" d="M71.68,483.43l4.67-98.82A133.16,133.16,0,0,1,65.78,371Z"/><path class="cls-5" d="M52.11,566.65a12.15,12.15,0,0,1-4.43-.42V668.89A12.09,12.09,0,0,0,54,671l5.15.19L53.67,566.51Z"/><polygon class="cls-5" points="73.8 523.8 71.68 483.43 71.1 495.79 73.8 523.8"/><path class="cls-5" d="M67.83,565l-5,106.28,16.07.61a12.22,12.22,0,0,0,2.32-.14v-7L75.62,558.42A12,12,0,0,1,67.83,565Z"/><path class="cls-5" d="M60.89,363.64q-1.48-2.26-3-4.53L71.1,495.79l.58-12.36L65.78,371C64.11,368.54,62.49,366.09,60.89,363.64Z"/><path class="cls-5" d="M65.76,565.39l-12.09,1.11,5.49,104.65,3.65.14,5-106.28A12.17,12.17,0,0,1,65.76,565.39Z"/><path class="cls-5" d="M69.2,273.56a12,12,0,0,1,10.88,7l.84-10.39a11.79,11.79,0,0,1-7.83-9.74l-1.87-17.14h-.26a12.05,12.05,0,0,0-11.49,7.13l1.22,23.17Z"/><path class="cls-5" d="M60.67,273.56,59.46,250.4a11.35,11.35,0,0,0-1,4.12l-.76,19.22a11.9,11.9,0,0,1,1.94-.17Z"/><path class="cls-5" d="M69.2,273.56H60.67l.59,11.29c3.63,5.2,7,10.56,10.43,15.9l3.19,5a11.54,11.54,0,0,0,3.77-7.6l1.42-17.63A12,12,0,0,0,69.2,273.56Z"/><path class="cls-5" d="M61.26,284.86l-.59-11.29h-1a11.9,11.9,0,0,0-1.94.17l-.23,5.91Q59.42,282.22,61.26,284.86Z"/><path class="cls-5" d="M47.68,527.65l-1.51,38a12.15,12.15,0,0,0,1.51.53Z"/><path class="cls-5" d="M76.58,552.64,73.8,523.8l1.82,34.63A11.36,11.36,0,0,0,76.58,552.64Z"/><path class="cls-5" d="M52.11,566.65l1.55-.14-4.29-81.75-1.7,42.9v38.58A12.15,12.15,0,0,0,52.11,566.65Z"/><path class="cls-5" d="M67.83,565a12,12,0,0,0,7.79-6.59L73.8,523.8l-2.7-28Z"/><path class="cls-5" d="M57.91,359.12q-1.65-2.5-3.37-5l-5.17,130.6,4.29,81.75,12.09-1.11a12.17,12.17,0,0,0,2.07-.38l3.27-69.22Z"/><path class="cls-5" d="M102.28,248.25c-.42-.91-.88-1.8-1.35-2.68a12.06,12.06,0,0,0-3.52-1.18q1.76,9.78,4.22,19.42Z"/><path class="cls-5" d="M100.93,245.56c.48.88.93,1.78,1.35,2.68l.08-1.83A12.09,12.09,0,0,0,100.93,245.56Z"/><path class="cls-5" d="M81.74,270.43a12.16,12.16,0,0,0,4.54.39l6.69-.7a11.82,11.82,0,0,0,10.66-12.89l-.86-7.91c-.16-.36-.32-.72-.48-1.08l-.66,15.56q-2.46-9.64-4.22-19.42a12.19,12.19,0,0,0-1.59-.18L83,243.72l-.08,1Z"/><path class="cls-5" d="M102.28,248.25c.17.36.32.72.48,1.08l-.31-2.84-.1-.07Z"/><path class="cls-5" d="M80.91,270.16c.27.1.55.19.83.27L83,244.69Z"/><polygon class="cls-5" points="82.96 244.69 83.04 243.72 83.01 243.72 82.96 244.69"/><path class="cls-5" d="M80.91,270.16l2-25.47,0-1-11.8-.45,1.87,17.14A11.79,11.79,0,0,0,80.91,270.16Z"/><path class="cls-2" d="M80.47,271.72c12.27,21.14,16,46.12,13.29,70.2-1.41,12.37-4,24.63-4.44,37.11-.32,10,.15,22,6.83,30.1,1.64,2,4.46-.86,2.83-2.83-7.7-9.32-6.15-25.34-5-36.52,1.3-12.44,3.95-24.72,4.57-37.23,1.08-21.65-3.71-44.06-14.63-62.86-1.29-2.23-4.75-.21-3.45,2Z"/><path class="cls-2" d="M93.23,377.47c-5.07-11.62-10.31-23.55-18.73-33.2-7.78-8.91-18.1-14.88-27.07-22.43A59.33,59.33,0,0,1,27.2,289c-1.51-6.7-2.33-14.13-.14-20.78s6.77-12.05,12-16.66c.72-.64-.34-1.7-1.06-1.06-9.09,8.07-14.6,17.92-13.54,30.34a60.64,60.64,0,0,0,14,34.37c8.6,9.93,20.36,16.19,30,25,11.23,10.31,17.53,24.27,23.52,38,.39.88,1.68.12,1.3-.76Z"/><path class="cls-2" d="M56.66,266.84c5.38,12.31-4.55,29.1-12.05,38.51C36.39,315.67,26,322.48,15.27,329.89,6.89,335.69-.85,344.74.07,355.61a22.73,22.73,0,0,0,15.56,19.48c1.53.51,2.19-1.91.66-2.41C2.66,368.17-.8,352.56,6.86,341.27c6.68-9.85,19.21-14.72,28.1-22.38a80.43,80.43,0,0,0,19.95-25c4.14-8.42,7.9-19.19,3.93-28.3-.64-1.47-2.8-.2-2.16,1.26Z"/><path class="cls-2" d="M27.46,367.8c-5.76-8.8-12.19-19-14.81-29.32-3-11.74,8.45-23.56,15.37-31.67,11.89-13.93,24.74-28.18,28.39-46.72.37-1.89-2.52-2.69-2.89-.8-4.35,22.1-21.73,37-34.78,54.12-5.47,7.19-11.4,16.44-9,25.87,2.71,10.58,9.2,21,15.11,30,1.05,1.61,3.65.11,2.59-1.51Z"/><path class="cls-2" d="M76.42,281.94c5.33,15.6,7.81,37.09-1.8,51.55-4.06,6.11-9,11.28-12.21,18a66.41,66.41,0,0,0-5.6,19.87c-.25,1.91,2.75,1.89,3,0a58.47,58.47,0,0,1,9-25.15c3.87-5.74,8.87-10.65,11.6-17.11,6.13-14.51,3.81-33.46-1.14-47.94-.62-1.82-3.52-1-2.89.8Z"/><path class="cls-2" d="M73.68,390.86c1.93-19.09-8.65-35-13.1-52.84-5-20.13.77-40.66,8.41-59.33.37-.89-1.09-1.28-1.45-.4-7,17.22-12.63,36.11-9.51,54.87,3.3,19.82,16.25,36.89,14.15,57.69-.1,1,1.4,1,1.5,0Z"/><path class="cls-2" d="M19.44,244C9.36,259,9.12,277.76,12.32,295c1.88,10.13,4.9,20,7.42,30,2.62,10.38,6.72,23.61,3.14,34.12-.83,2.44,3,3.49,3.86,1.06,2.93-8.62.74-18.69-1.07-27.36-2.12-10.15-5.2-20.06-7.61-30.14-4.5-18.78-6.45-39.84,4.84-56.69,1.44-2.14-2-4.15-3.45-2Z"/><path class="cls-2" d="M40.21,255.68a135.26,135.26,0,0,1-10.35,25.85c-1.95,3.8-4,7.55-6.09,11.27s-3.87,7.9-7.07,10.71c-1.45,1.28.67,3.39,2.12,2.12,2.79-2.44,4.39-5.74,6.19-8.92,2.55-4.52,5.07-9,7.44-13.66A139.21,139.21,0,0,0,43.1,256.48a1.5,1.5,0,0,0-2.89-.8Z"/><path class="cls-2" d="M48.94,323.13c-13.64-3.48-5.47,31.26-4.18,37.4.2.94,1.65.54,1.45-.4-1.15-5.46-2.13-11-2.74-16.5-.43-3.93-2.77-21.07,5.07-19.06a.75.75,0,0,0,.4-1.45Z"/><path class="cls-2" d="M76.94,296.72c-6,6.21-13,10.76-21.45,12.83-5.66,1.38-10.48,2.35-14.11,7.36-3.46,4.78-4.63,11.27-5.44,17a61.84,61.84,0,0,0,1.3,22.77c.29,1.25,2.22.72,1.93-.53a59.14,59.14,0,0,1-1.11-23c1.07-6.54,2.53-14.22,8.23-18.33,4.77-3.44,11.63-3.4,17-5.75a48.16,48.16,0,0,0,15.07-10.91c.9-.92-.52-2.34-1.41-1.41Z"/><path class="cls-2" d="M78.87,389c-1.47-28,10.28-53.9,12.64-81.56.22-2.56-3.78-2.55-4,0C85.16,335.09,73.4,360.82,74.87,389c.13,2.56,4.13,2.58,4,0Z"/><path class="cls-2" d="M95.81,291.88c-13.88,5.81-24.21,16.75-32.31,29.18C55,334.14,45.15,350,45.35,366.1a1.25,1.25,0,0,0,2.5,0c-.19-15.15,9-29.82,16.82-42.24s18-23.79,31.8-29.57c1.46-.61.82-3-.66-2.41Z"/></g></g></svg>