<?xml version="1.0" encoding="utf-8"?>
<!-- Generator: Adobe Illustrator 21.0.2, SVG Export Plug-In . SVG Version: 6.00 Build 0)  -->
<svg version="1.1" xmlns="http://www.w3.org/2000/svg" xmlns:xlink="http://www.w3.org/1999/xlink" x="0px" y="0px"
	 viewBox="0 0 128 127.8" style="enable-background:new 0 0 128 127.8;" xml:space="preserve">
<style type="text/css">
	.st0{display:none;}
	.st1{display:inline;}
	.st2{stroke:#000000;stroke-miterlimit:10;}
</style>
<g id="레이어_2" class="st0">
	<g class="st1">
		<g>
			<path d="M48.4,19.1c-22.6,3-31.8,25.1-38.3,44.1c1.6,0.4,3.2,0.9,4.8,1.3c3.1-16.2,6-35.6,17.2-48.5C38.5,8.9,48.1,8.2,57.1,8
				c2.2-0.1,4.5-0.1,6.7,0c1.1,0,2.9-0.1,3.8,0.2c1.7,0.6,1.2-0.1,1.8,1.4c0.7,1.7-0.2,5.1-0.3,6.9c-0.1,2.6-0.2,5.3-0.3,7.9
				c-0.6,19.1-0.7,38.2-0.4,57.4c0.1,4.6,0.1,9.2,0.3,13.8c0.1,2.6,0,5.1,2.4,6.7c5.3,3.4,14.9,3,20.8,2.3c16.1-1.9,30-12.3,37-26.9
				c-1.5-0.6-3-1.3-4.6-1.9c-3.6,15.2-6.8,33.8-17.4,45.8c-5.8,6.6-14.8,7.8-23,8.1c-6.9,0.3-19.8,0.7-23.6-6.5
				c-3.3-6.4-1.7-16.1-1.8-23.1c-0.1-8.5-0.4-17-0.8-25.4c-0.9-17.6-2.3-35.1-4.4-52.6c-0.4-3.2-5.4-3.2-5,0
				c2.4,20.7,4,41.6,4.8,62.4c0.4,10.1,0.2,20.2,0.6,30.3c0.3,6.7,1.9,13.5,8.4,16.8c7.4,3.7,17.4,3.7,25.4,3
				c8-0.7,16.1-2.3,21.9-8.2c5.7-5.8,9.1-13.9,12-21.4c3.4-9,5.6-18.4,7.8-27.8c0.6-2.6-3.3-4.6-4.6-1.9
				c-7.4,15.5-22.9,25.4-40.2,24.8c-3.3-0.1-9.5,0-10.6-3.4c-0.7-1.9-0.1-4.9-0.2-6.9c-0.1-2.6-0.1-5.3-0.1-7.9
				c-0.2-9.9-0.2-19.8-0.1-29.7c0.1-9.6,0.3-19.1,0.6-28.7c0.1-4.6,0.4-9.2,0.5-13.8c0.1-2.4-0.1-4.6-2.5-5.7c-2.8-1.3-7-0.9-10-0.9
				c-5-0.1-10,0.2-15,0.9c-6.8,0.9-13,3.1-17.8,8.2c-12.4,13.4-15.7,34-19,51.3c-0.6,3.2,3.8,4.4,4.8,1.3
				c5.6-16.5,13.5-37.8,33.5-40.5C51.6,23.7,51.6,18.7,48.4,19.1L48.4,19.1z"/>
		</g>
	</g>
</g>
<g id="레이어_1">
	<g>
		<path class="st2" d="M76.5,5.7V2.4C72.5,1.6,68.3,1.1,64,1.1C29.3,1.1,1.1,29.3,1.1,64c0,0.1,0,0.1,0,0.2
			c4.2-18.4,19.6-32.6,38.8-35.2C47.3,16,60.8,7,76.5,5.7z"/>
		<path class="st2" d="M126.4,56.8c-2.5,20.3-18.4,36.5-38.8,39.7v0.9h-1.3c-7.2,12.1-20,20.7-34.8,22.3v5.9c4,0.8,8.2,1.2,12.4,1.2
			c34.7,0,62.8-28.1,62.8-62.8C126.8,61.5,126.7,59.1,126.4,56.8z"/>
		<path class="st2" d="M59.2,29v1.2c3.6,1,7,2.5,10.2,4.3V29h7.1V5.7C60.8,7,47.3,16,39.9,28.9c2.1-0.3,4.3-0.5,6.5-0.5
			c1.7,0,3.5,0.1,5.2,0.3V22v6.8c0.7,0.1,1.4,0.2,2.1,0.3H59.2z"/>
		<path class="st2" d="M86.4,97.4h-9.8v8.1v-8.1h-7.1v-1.6c-3.6-0.9-7-2.1-10.2-3.8v5.4h-7.6v22.3C66.4,118.1,79.1,109.5,86.4,97.4z
			"/>
		<path class="st2" d="M59.2,30.2V92c3.2,1.6,6.6,2.9,10.2,3.8V34.5C66.2,32.7,62.8,31.3,59.2,30.2z"/>
		<path class="st2" d="M53.6,29c1.9,0.3,3.7,0.7,5.6,1.2V29H53.6z"/>
		<path class="st2" d="M86.4,97.4h1.3v-0.9c-0.3,0-0.5,0.1-0.8,0.1C86.7,96.9,86.5,97.1,86.4,97.4z"/>
		<path class="st2" d="M80.4,97.1c-1.3,0-2.6-0.1-3.8-0.2v0.5h9.8c0.2-0.3,0.3-0.5,0.5-0.8C84.7,96.9,82.6,97.1,80.4,97.1z"/>
		<path class="st2" d="M69.4,95.8v1.6h7.1v-0.5C74.1,96.7,71.7,96.3,69.4,95.8z"/>
	</g>
</g>
</svg>
