<svg id="Layer_1" xmlns="http://www.w3.org/2000/svg" viewBox="0 0 65.2 992.1"><style>.st0{stroke:#000;stroke-miterlimit:10}</style><path class="st0" d="M50.7 553.5c-4.6-2.4-7.7-7.1-7.7-12.6s3.1-10.2 7.7-12.6c-4.6-2.4-7.7-7.1-7.7-12.6s3.1-10.2 7.7-12.6c-4.6-2.4-7.7-7.1-7.7-12.6 0-5.8 3.5-10.8 8.5-13-4.6-2.3-7.8-7.1-7.8-12.6s3.1-10.2 7.7-12.6c-4.6-2.4-7.7-7.1-7.7-12.6s3.1-10.2 7.7-12.6c-4.6-2.4-7.7-7.1-7.7-12.6s3.1-10.2 7.7-12.6c-4.6-2.4-7.7-7.1-7.7-12.6 0-5.4 3-10 7.4-12.4L38.8 12.4v2.3l-14.3 363c4.6 2.3 7.8 7.1 7.8 12.6s-3.1 10.2-7.7 12.6c4.6 2.4 7.7 7.1 7.7 12.6s-3.1 10.2-7.7 12.6c4.6 2.4 7.7 7.1 7.7 12.6s-3.1 10.2-7.7 12.6c4.6 2.4 7.7 7.1 7.7 12.6 0 5.8-3.5 10.8-8.5 13 4.6 2.3 7.8 7.1 7.8 12.6s-3.1 10.2-7.7 12.6c4.6 2.4 7.7 7.1 7.7 12.6s-3.1 10.2-7.7 12.6c4.6 2.4 7.7 7.1 7.7 12.6s-3.1 10.2-7.7 12.6c4.6 2.4 7.7 7.1 7.7 12.6 0 3.7-1.4 7.1-3.8 9.6v285.2H9L6 976.2h54.6l-.8-114.4H45.6V574.2c-1.6-2.3-2.6-5.1-2.6-8.1 0-5.5 3.2-10.3 7.7-12.6z"/><path class="st0" d="M17.4 556c2.3 0 4.5-.6 6.4-1.6-1.9-1-4-1.5-6.3-1.6l-.1 3.2zM18.4 530.8c1.9-.1 3.8-.7 5.4-1.5-1.6-.8-3.4-1.4-5.3-1.5l-.1 3zM19.4 505.5c1.6-.2 3.1-.7 4.4-1.4-1.3-.7-2.8-1.2-4.3-1.4l-.1 2.8zM57.2 555.1l-.1-3.1c-2.3 0-4.4.6-6.3 1.6 1.9.9 4 1.4 6.4 1.5zM56.3 529.8l-.1-3.1c-2 .1-3.8.7-5.5 1.5 1.7 1 3.6 1.5 5.6 1.6zM55.5 504.6l-.1-2.9c-1.6.2-3.2.7-4.6 1.4 1.4.7 3 1.2 4.7 1.5zM20.5 479.8c1.2-.2 2.3-.5 3.3-1-1-.5-2.1-.9-3.3-1.2v2.2zM21.5 454.4c1.1-.3 2.1-.7 3.1-1.2-1-.5-2-.9-3-1.1l-.1 2.3zM22.5 429c.7-.2 1.4-.5 2.1-.9-.7-.3-1.3-.6-2.1-.9v1.8zM23.5 403.4c.4-.2.8-.3 1.1-.5-.4-.2-.7-.4-1.1-.5v1zM54.6 478.7l-.1-2.1c-1 .2-2 .5-3 .9 1 .5 2 .9 3.1 1.2zM53.7 453.2l-.1-1.9c-.8.2-1.5.6-2.2.9.8.5 1.5.8 2.3 1zM52.8 427.7v-1.2c-.5.2-.9.4-1.4.6.5.2 1 .4 1.4.6zM52 402.2v-.5c-.2.1-.4.2-.5.3.1 0 .3.1.5.2z"/></svg>