<svg xmlns="http://www.w3.org/2000/svg" viewBox="0 0 635.37 635.37"><defs><style>.cls-1{stroke:#231815;stroke-miterlimit:10}.cls-2{fill:#fff}</style></defs><title>wheel_out_00</title><g id="레이어_2" data-name="레이어 2"><g id="레이어_1-2" data-name="레이어 1"><path class="cls-1" d="M351.22 634.83a318.18 318.18 0 0 0 32.57-5.13l-.14-36.29a282.88 282.88 0 0 1-43.52 6.85zM447.61 609A317.83 317.83 0 0 0 477 594l-11.35-34.49a282.5 282.5 0 0 1-39.24 20zM158.39 594a317.83 317.83 0 0 0 29.37 15L209 579.54a282.5 282.5 0 0 1-39.24-20zM501.93 533.09l29.28 21.44a320.86 320.86 0 0 0 23.33-23.33l-21.44-29.28a285.17 285.17 0 0 1-31.17 31.17zM251.57 629.7a318.18 318.18 0 0 0 32.57 5.13l11.09-34.56a282.88 282.88 0 0 1-43.52-6.85zM594 477a317.83 317.83 0 0 0 15-29.37l-29.44-21.22a282.51 282.51 0 0 1-20 39.24zM26.38 447.61a317.83 317.83 0 0 0 15 29.37l34.49-11.35a282.5 282.5 0 0 1-20-39.24zM133.44 102.28l-29.28-21.44a320.87 320.87 0 0 0-23.33 23.33l21.44 29.28a285.19 285.19 0 0 1 31.17-31.17zM41.37 158.39a317.83 317.83 0 0 0-15 29.37L55.83 209a282.5 282.5 0 0 1 20-39.24zM187.76 26.38a317.83 317.83 0 0 0-29.37 15l11.35 34.49a282.51 282.51 0 0 1 39.24-20zM.54 351.22a318.18 318.18 0 0 0 5.13 32.57l36.33-.13a282.88 282.88 0 0 1-6.85-43.52zM284.15.54a318.18 318.18 0 0 0-32.57 5.13l.13 36.33a282.88 282.88 0 0 1 43.52-6.85zM5.67 251.57a318.18 318.18 0 0 0-5.13 32.58l34.56 11.09a282.88 282.88 0 0 1 6.9-43.53zM533.09 133.44l21.44-29.28a320.86 320.86 0 0 0-23.33-23.33l-29.28 21.44a285.18 285.18 0 0 1 31.17 31.17zM634.83 284.15a318.18 318.18 0 0 0-5.13-32.57l-36.29.14a282.88 282.88 0 0 1 6.85 43.52zM593.41 383.66l36.29.14a318.18 318.18 0 0 0 5.13-32.57l-34.56-11.09a282.88 282.88 0 0 1-6.86 43.52zM609 187.76a317.83 317.83 0 0 0-15-29.37l-34.49 11.35a282.51 282.51 0 0 1 20 39.24zM477 41.37a317.83 317.83 0 0 0-29.37-15l-21.24 29.46a282.51 282.51 0 0 1 39.24 20zM102.28 501.93l-21.44 29.28a320.87 320.87 0 0 0 23.33 23.33l29.28-21.44a285.19 285.19 0 0 1-31.17-31.17zM383.79 5.67A318.18 318.18 0 0 0 351.22.54L340.13 35.1a282.88 282.88 0 0 1 43.53 6.9zM556.87 251.85l36.55-.14A281.27 281.27 0 0 0 579.54 209l-29.65 21.37q3.96 10.51 6.98 21.48z"/><path class="cls-1" d="M565.72 317.68c0 3.78-.1 7.54-.27 11.28l34.82 11.17q.87-11.11.88-22.45t-.88-22.45l-34.82 11.17c.17 3.74.27 7.5.27 11.28zM524.78 181.17l34.73-11.43a284.37 284.37 0 0 0-26.42-36.3l-21.59 29.48q7.04 8.81 13.28 18.25zM230.36 549.89L209 579.54a281.27 281.27 0 0 0 42.73 13.87l.14-36.55q-10.98-3-21.51-6.97zM317.68 565.72c-3.78 0-7.54-.1-11.28-.27l-11.17 34.82q11.11.87 22.45.88t22.45-.88L329 565.45c-3.78.17-7.53.27-11.32.27zM383.52 556.87l.14 36.55a281.27 281.27 0 0 0 42.73-13.87L405 549.89q-10.52 3.96-21.48 6.98zM162.92 511.5l-29.48 21.59a284.36 284.36 0 0 0 36.3 26.42l11.43-34.73q-9.43-6.23-18.25-13.28zM454.2 524.78l11.43 34.73a284.36 284.36 0 0 0 36.3-26.42l-29.48-21.59q-8.81 7.04-18.25 13.28zM549.89 405l29.65 21.37a281.27 281.27 0 0 0 13.87-42.73l-36.55-.14q-3 10.98-6.97 21.5zM110.59 454.2l-34.73 11.43a284.36 284.36 0 0 0 26.42 36.3l21.59-29.48q-7.04-8.81-13.28-18.25zM511.5 472.45l21.59 29.48a284.37 284.37 0 0 0 26.42-36.3l-34.73-11.43q-6.23 9.43-13.28 18.25zM405 85.48l21.37-29.65A281.27 281.27 0 0 0 383.66 42l-.14 36.55q10.96 2.96 21.48 6.93zM317.68 69.65c3.78 0 7.54.1 11.28.27l11.17-34.82q-11.11-.87-22.45-.88t-22.45.88l11.17 34.82c3.74-.17 7.5-.27 11.28-.27zM251.85 78.5l-.14-36.5A281.27 281.27 0 0 0 209 55.83l21.37 29.65q10.51-3.96 21.48-6.98zM472.45 123.87l29.48-21.59a284.37 284.37 0 0 0-36.3-26.42l-11.43 34.73q9.43 6.23 18.25 13.28zM181.17 110.59l-11.43-34.73a284.37 284.37 0 0 0-36.3 26.42l29.48 21.59q8.81-7.04 18.25-13.28zM69.65 317.68c0-3.78.1-7.54.27-11.28L35.1 295.24q-.87 11.11-.88 22.45t.88 22.45L69.92 329c-.17-3.78-.27-7.53-.27-11.32zM78.5 383.52l-36.5.14a281.27 281.27 0 0 0 13.87 42.73L85.48 405q-3.96-10.52-6.98-21.48zM123.87 162.92l-21.59-29.48a284.36 284.36 0 0 0-26.42 36.3l34.73 11.43q6.23-9.43 13.28-18.25zM85.48 230.36L55.83 209A281.27 281.27 0 0 0 42 251.71l36.55.14q2.96-10.96 6.93-21.49zM565.45 306.4l34.82-11.17a282.88 282.88 0 0 0-6.85-43.52l-36.55.14a247.64 247.64 0 0 1 8.58 54.55z"/><path class="cls-1" d="M181.17 524.78l-11.43 34.73a282.5 282.5 0 0 0 39.24 20l21.37-29.65a247.19 247.19 0 0 1-49.18-25.08zM230.36 85.48L209 55.83a282.51 282.51 0 0 0-39.24 20l11.43 34.73a247.19 247.19 0 0 1 49.17-25.08zM549.89 230.36L579.54 209a282.51 282.51 0 0 0-20-39.24l-34.73 11.43a247.19 247.19 0 0 1 25.08 49.17zM110.59 181.17l-34.73-11.43a282.5 282.5 0 0 0-20 39.24l29.65 21.37a247.19 247.19 0 0 1 25.08-49.18zM162.92 123.87l-29.48-21.59a285.19 285.19 0 0 0-31.16 31.16l21.59 29.48a249.49 249.49 0 0 1 39.05-39.05zM524.78 454.2l34.73 11.43a282.51 282.51 0 0 0 20-39.24L549.89 405a247.19 247.19 0 0 1-25.11 49.2zM472.45 511.5l29.48 21.59a285.17 285.17 0 0 0 31.16-31.16l-21.59-29.48a249.49 249.49 0 0 1-39.05 39.05zM306.4 69.92L295.24 35.1a282.88 282.88 0 0 0-43.53 6.9l.14 36.55a247.64 247.64 0 0 1 54.55-8.63zM383.52 78.5l.14-36.5a282.88 282.88 0 0 0-43.52-6.85L329 69.92a247.64 247.64 0 0 1 54.52 8.58zM405 549.89l21.37 29.65a282.5 282.5 0 0 0 39.24-20l-11.41-34.76a247.19 247.19 0 0 1-49.2 25.11zM511.5 162.92l21.59-29.48a285.18 285.18 0 0 0-31.16-31.16l-29.48 21.59a249.49 249.49 0 0 1 39.05 39.05zM251.85 556.87l-.14 36.55a282.88 282.88 0 0 0 43.52 6.85l11.17-34.82a247.64 247.64 0 0 1-54.55-8.58zM329 565.45l11.17 34.82a282.88 282.88 0 0 0 43.52-6.85l-.14-36.55a247.64 247.64 0 0 1-54.55 8.58zM565.45 329a247.64 247.64 0 0 1-8.58 54.56l36.55.14a282.88 282.88 0 0 0 6.85-43.52zM78.5 251.85l-36.5-.14a282.88 282.88 0 0 0-6.85 43.52l34.77 11.17a247.64 247.64 0 0 1 8.58-54.55zM454.2 110.59l11.43-34.73a282.51 282.51 0 0 0-39.24-20L405 85.48a247.19 247.19 0 0 1 49.2 25.11zM69.92 329L35.1 340.13a282.88 282.88 0 0 0 6.9 43.53l36.55-.14A247.64 247.64 0 0 1 69.92 329zM123.87 472.45l-21.59 29.48a285.19 285.19 0 0 0 31.16 31.16l29.48-21.59a249.49 249.49 0 0 1-39.05-39.05zM85.48 405l-29.65 21.39a282.5 282.5 0 0 0 20 39.24l34.73-11.43A247.19 247.19 0 0 1 85.48 405z"/><path class="cls-2" d="M306.4 565.45c3.74.17 7.5.27 11.28.27s7.54-.1 11.28-.27l-11.28-35.17zM329 69.92c-3.74-.17-7.5-.27-11.28-.27s-7.54.1-11.28.27l11.28 35.17z"/><path class="cls-1" d="M309.02 55.94h17.32v523.48h-17.32z"/><path class="cls-1" transform="rotate(60 317.686 317.689)" d="M309.02 55.94h17.32v523.48h-17.32z"/><path class="cls-1" transform="rotate(-60 317.689 317.686)" d="M309.02 55.94h17.32v523.48h-17.32z"/></g></g></svg>