<svg xmlns="http://www.w3.org/2000/svg" viewBox="0 0 425.69 425.69"><defs><style>.cls-1{stroke:#231815;stroke-miterlimit:10}</style></defs><title>wheel_out_01</title><g id="레이어_2" data-name="레이어 2"><g id="레이어_1-2" data-name="레이어 1"><path class="cls-1" d="M385.81 174.4l36.77 5.15a210.84 210.84 0 0 0-20.47-63.07l-26.73 25.79a175.81 175.81 0 0 1 10.43 32.13zM95.54 345.6L62.75 363a213 213 0 0 0 53.61 39l6.47-36.59a177.72 177.72 0 0 1-27.29-19.81zM50.3 142.27l-26.72-25.79A210.84 210.84 0 0 0 3.1 179.55l36.77-5.15a175.81 175.81 0 0 1 10.43-32.13zM60.23 302.86l-36.59 6.47a213 213 0 0 0 39 53.61l17.45-32.79a177.72 177.72 0 0 1-19.86-27.29zM39.87 251.29L3.1 246.13a210.84 210.84 0 0 0 20.48 63.07l26.72-25.79a175.8 175.8 0 0 1-10.43-32.12zM390 212.84c0 5.69-.28 11.32-.8 16.87L422.6 246a214.16 214.16 0 0 0 0-66.3L389.2 196c.53 5.52.8 11.15.8 16.84zM35.68 212.84c0-5.69.28-11.32.8-16.87l-33.4-16.28a214.16 214.16 0 0 0 0 66.3l33.4-16.28c-.48-5.55-.8-11.17-.8-16.87zM330.15 80.09l32.79-17.45a213 213 0 0 0-53.61-39l-6.47 36.59a177.72 177.72 0 0 1 27.29 19.86zM283.41 50.3l25.79-26.72A210.84 210.84 0 0 0 246.13 3.1l5.15 36.77a175.81 175.81 0 0 1 32.13 10.43zM122.83 60.23l-6.47-36.59a213 213 0 0 0-53.61 39l32.79 17.45a177.72 177.72 0 0 1 27.29-19.86zM365.46 122.83l36.59-6.47a213 213 0 0 0-39-53.61L345.6 95.54a177.71 177.71 0 0 1 19.86 27.29zM212.84 35.68c5.69 0 11.32.28 16.87.8L246 3.08a214.16 214.16 0 0 0-66.3 0l16.3 33.4c5.52-.48 11.15-.8 16.84-.8zM174.4 39.87l5.15-36.77a210.84 210.84 0 0 0-63.07 20.47l25.79 26.73a175.8 175.8 0 0 1 32.13-10.43zM80.09 95.54L62.64 62.75a213 213 0 0 0-39 53.61l36.59 6.47a177.71 177.71 0 0 1 19.86-27.29zM212.84 390c-5.69 0-11.32-.28-16.87-.8l-16.28 33.4a214.16 214.16 0 0 0 66.3 0l-16.28-33.4c-5.55.53-11.17.8-16.87.8zM345.6 330.15l17.4 32.79a213 213 0 0 0 39-53.61l-36.59-6.47a177.72 177.72 0 0 1-19.81 27.29zM251.29 385.81l-5.15 36.77a210.84 210.84 0 0 0 63.07-20.47l-25.79-26.73a175.81 175.81 0 0 1-32.13 10.43zM142.27 375.38l-25.79 26.73a210.84 210.84 0 0 0 63.07 20.47l-5.15-36.77a175.8 175.8 0 0 1-32.13-10.43zM385.81 251.29a175.8 175.8 0 0 1-10.43 32.12l26.73 25.79a210.84 210.84 0 0 0 20.47-63.07zM302.86 365.46l6.47 36.59a213 213 0 0 0 53.61-39l-32.79-17.45a177.72 177.72 0 0 1-27.29 19.86zM309.36 402.27v-.22l-.12.06zM402.27 116.33h-.22l.06.12z"/><path class="cls-1" d="M309.36 23.42l-.16.16.12.06zM362.94 363l.24.13-.13-.24zM363 62.75l.13-.24-.24.13zM402.27 309.36l-.16-.16-.06.12zM422.82 246.1l-.22-.11v.14zM422.82 179.59h-.24v.14zM62.75 62.64l-.24-.13.13.24zM2.86 246.1h.24v-.14zM2.86 179.59l.22.11v-.14zM116.33 402.27l.16-.16-.12-.06zM246.1 2.86l-.11.22h.14zM23.42 116.33l.16.16.06-.12zM62.64 362.94l-.13.24.24-.13zM246.1 422.82v-.24h-.14zM23.42 309.36h.22l-.06-.12zM179.59 422.82l.11-.22h-.14zM179.59 2.86v.24h.14zM116.33 23.42v.22l.12-.06zM314.74 190.19l21.66 3a124.21 124.21 0 0 0-12.06-37.16l-15.74 15.24a103.57 103.57 0 0 1 6.14 18.92zM143.74 291.05l-19.32 10.28a125.47 125.47 0 0 0 31.59 23l3.81-21.56a104.7 104.7 0 0 1-16.08-11.72zM117.09 171.27l-15.75-15.19a124.21 124.21 0 0 0-12.06 37.16l21.66-3a103.57 103.57 0 0 1 6.15-18.97zM122.94 265.87l-21.56 3.81a125.47 125.47 0 0 0 23 31.59l10.28-19.32a104.7 104.7 0 0 1-11.72-16.08zM110.94 235.49l-21.66-3a124.21 124.21 0 0 0 12.06 37.16l15.75-15.19a103.57 103.57 0 0 1-6.15-18.97zM317.22 212.84c0 3.35-.16 6.67-.47 9.94l19.68 9.59a126.17 126.17 0 0 0 0-39.06l-19.68 9.59c.3 3.27.47 6.59.47 9.94zM108.47 212.84c0-3.35.16-6.67.47-9.94l-19.68-9.59a126.17 126.17 0 0 0 0 39.06l19.68-9.59c-.3-3.27-.47-6.58-.47-9.94zM281.95 134.63l19.32-10.28a125.47 125.47 0 0 0-31.59-23l-3.81 21.56a104.7 104.7 0 0 1 16.08 11.72zM254.42 117.09l15.19-15.75a124.21 124.21 0 0 0-37.16-12.06l3 21.66a103.57 103.57 0 0 1 18.97 6.15zM159.81 122.94L156 101.38a125.47 125.47 0 0 0-31.59 23l19.32 10.28a104.7 104.7 0 0 1 16.08-11.72zM302.75 159.81l21.56-3.81a125.47 125.47 0 0 0-23-31.59l-10.28 19.32a104.69 104.69 0 0 1 11.72 16.08zM212.84 108.47c3.35 0 6.67.16 9.94.47l9.59-19.68a126.17 126.17 0 0 0-39.06 0l9.59 19.68c3.27-.3 6.59-.47 9.94-.47zM190.19 110.94l3-21.66a124.21 124.21 0 0 0-37.16 12.06l15.19 15.75a103.57 103.57 0 0 1 18.97-6.15zM134.63 143.74l-10.28-19.32a125.47 125.47 0 0 0-23 31.59l21.56 3.81a104.69 104.69 0 0 1 11.72-16.08zM212.84 317.22c-3.35 0-6.67-.16-9.94-.47l-9.59 19.68a126.17 126.17 0 0 0 39.06 0l-9.59-19.68c-3.27.3-6.58.47-9.94.47zM291.05 281.95l10.28 19.32a125.47 125.47 0 0 0 23-31.59l-21.56-3.81a104.7 104.7 0 0 1-11.72 16.08zM235.49 314.74l-3 21.66a124.21 124.21 0 0 0 37.16-12.06l-15.23-15.74a103.57 103.57 0 0 1-18.93 6.14zM171.27 308.6l-15.19 15.75a124.21 124.21 0 0 0 37.16 12.06l-3-21.66a103.57 103.57 0 0 1-18.97-6.15zM314.74 235.49a103.57 103.57 0 0 1-6.14 18.93l15.75 15.19a124.21 124.21 0 0 0 12.06-37.16zM265.87 302.75l3.81 21.56a125.47 125.47 0 0 0 31.59-23l-19.32-10.28a104.7 104.7 0 0 1-16.08 11.72z"/><path class="cls-1" d="M269.7 324.44v-.13h-.07zM324.44 156h-.13v.07zM269.7 101.25l-.09.09h.07zM301.27 301.33l.14.07-.07-.14zM301.33 124.42l.07-.14-.14.07zM324.44 269.7l-.09-.09v.07zM336.55 232.44l-.13-.06v.08zM336.55 193.25h-.14v.08zM124.42 124.35l-.14-.07.07.14zM89.14 232.44h.14v-.08zM89.14 193.25l.13.06v-.08zM156 324.44l.09-.09h-.07zM232.44 89.14l-.06.13h.08zM101.25 156l.09.09v-.07zM124.35 301.27l-.07.14.14-.07zM232.44 336.55v-.14h-.08zM101.25 269.7h.13v-.07zM193.25 336.55l.06-.13h-.08zM193.25 89.14v.14h.08zM156 101.25v.13h.07z"/></g></g></svg>