<?xml version="1.0" encoding="utf-8"?>
<!-- Generator: Adobe Illustrator 21.0.2, SVG Export Plug-In . SVG Version: 6.00 Build 0)  -->
<svg version="1.1" id="레이어_1" xmlns="http://www.w3.org/2000/svg" xmlns:xlink="http://www.w3.org/1999/xlink" x="0px"
	 y="0px" viewBox="0 0 102 102" style="enable-background:new 0 0 102 102;" xml:space="preserve">
<style type="text/css">
	.st0{fill:url(#SVGID_1_);stroke:#F5F6C8;stroke-width:0.3;stroke-miterlimit:10;}
	.st1{fill:url(#SVGID_2_);stroke:#F5F6C8;stroke-width:0.3;stroke-miterlimit:10;}
	.st2{fill:url(#SVGID_3_);stroke:#F5F6C8;stroke-width:0.3;stroke-miterlimit:10;}
	.st3{fill:#666666;stroke:#F5F6C8;stroke-width:0.3;stroke-miterlimit:10;}
</style>
<radialGradient id="SVGID_1_" cx="98.6037" cy="-3.8566" r="161.1896" gradientTransform="matrix(0.8655 0 0 0.8594 5.2252 8.985)" gradientUnits="userSpaceOnUse">
	<stop  offset="0" style="stop-color:#000000"/>
	<stop  offset="0" style="stop-color:#151414"/>
	<stop  offset="1" style="stop-color:#A1A1A1"/>
</radialGradient>
<path class="st0" d="M57.5,41.5c-0.1-0.7,1.3-20.3,1.3-20.3s1.6-8.6,9.4-13.6l-3.9,13c0,0,3.9-12.8,9.4-14.6
	c5.5-1.8,15.4-6.9,19.4-4.4s10.2,20.7,5.8,28.4S84,47.5,84,47.5S60.5,50,59.6,49.3C58.7,48.7,57.5,41.5,57.5,41.5z"/>
<radialGradient id="SVGID_2_" cx="99.1116" cy="-3.3047" r="165.644" gradientTransform="matrix(0.8655 0 0 0.8594 5.2252 8.985)" gradientUnits="userSpaceOnUse">
	<stop  offset="0" style="stop-color:#000000"/>
	<stop  offset="0" style="stop-color:#151414"/>
	<stop  offset="1" style="stop-color:#A1A1A1"/>
</radialGradient>
<path class="st1" d="M28.2,77.8l-4.6-16.5c0,0,1.2-18.6,7.5-23.3c6.3-3,14.8-9.8,16.4-12.7l14.6-8.4c0,0-7.4,15.1-6.5,21.3l5.5,13.2
	c0,0,15.1-2.1,24.7-8.9s9.6-6.9,9.6-6.9L72.7,59.4l-18,7.8l9.3-0.9C64,66.3,68.9,70.3,28.2,77.8z"/>
<radialGradient id="SVGID_3_" cx="98.6215" cy="-2.4707" r="170.5195" gradientTransform="matrix(0.8655 0 0 0.8594 5.2252 8.985)" gradientUnits="userSpaceOnUse">
	<stop  offset="0" style="stop-color:#000000"/>
	<stop  offset="0" style="stop-color:#151414"/>
	<stop  offset="1" style="stop-color:#A1A1A1"/>
</radialGradient>
<path class="st2" d="M26.8,72c0,0,0.4-12.6-5.2-15.6l-5.8-1.6l3.4,3.4l-7.3-2.1c0,0,8.3,3.8,9.2,8.1c0,0-4.3-4-6.8-1
	c0,0,8,3.6,8.1,8.3c0,0,2,5.6-1,7.6l1.6,3.9c0,0,8.5-4.2,13.4-2.1c0,0,6,1.4,10.8-0.5l7.3-5.2c0,0-9.1,3.4-19.4,2.6L26.8,72z"/>
<path class="st3" d="M93.2,1.6c0,0-12.6,23.2-74.5,81.3l-16,13.8c0,0-2.4,3.3-0.8,3.4s3.7-0.3,3.7-0.3S71.7,41.1,93.2,1.6z"/>
</svg>
