<svg xmlns="http://www.w3.org/2000/svg" viewBox="0 0 361.98 120.83"><defs><style>.cls-1{fill:#939393}.cls-2{fill:#231815}</style></defs><title>easymode</title><g id="레이어_2" data-name="레이어 2"><g id="레이어_1-2" data-name="레이어 1"><path class="cls-1" d="M106.69 120.83a31.25 31.25 0 0 1-15.27-3.47l-2 2.34H74.5l-7-6.15-2-15.15h-2.41l-2 15.15-7 6.15h-47L0 112.61V8.23l7.09-7.09h35.07L48.05 7l6.85-5.86h18.75l7 6 1.46 9.7A29.34 29.34 0 0 1 85.26 11l.06-.08A25.63 25.63 0 0 1 106.41 0h.59a29.31 29.31 0 0 1 12.17 2.4l1-1.26h15.06l6.91 5.5 1.33 5.79 1.33-5.79 6.91-5.5h15.05l6.86 8.86-15.39 59.07v43.54l-7.09 7.09h-15.33l-7.09-7.09v-1.81c-3.62 4.8-10.26 10.03-22.03 10.03zM35.42 89.76l2.37-15.68-1.16 1.16h-7.12v14.52zm64.93-13.45c-.4-.63-.81-1.26-1.22-1.88-3.21-4.59-6.49-9.46-9.75-14.48q-.51-.79-1-1.58L91 75.61l7.79-.73zM114 43.22c1 1.56 2.14 3.18 3.29 4.85.72 1 1.45 2.11 2.18 3.19 2.5 3.69 5.24 7.82 7.69 12l-5.42-20.8zm-77.37 1.09l4.91 4.91 3.12-20.65-2.49 2.49H29.51v13.25zM258.89 120.83c-6.37 0-11.7-1.59-15.87-4.73l-3.59 3.59h-14.2L220 114.5l-6 5.19h-6.53l-6-5.19-5.19 5.19h-14.2l-7.08-7.08V8.23l7.09-7.09h18.71l7 5.76 3 15.65 3-15.65 7-5.76h18.75l3.6 3.6A26.82 26.82 0 0 1 258.89 0a26.15 26.15 0 0 1 15.8 4.79l3.66-3.65h12.07c8.3 0 17.14.8 24 5.35l5.35-5.35h35.13l7.1 7.09V24l-7.09 7.09h-12.67v13.22h7.12l7.09 7.09v16.76l-7.09 7.09h-7.12v14.51h12.66l7.1 7.09v15.76l-7.09 7.09h-35.09l-5.35-5.35c-6.91 4.55-15.75 5.35-24 5.35h-12.12l-3.65-3.7c-4.18 3.22-9.49 4.83-15.81 4.83z"/><path class="cls-2" d="M144 41.6l-.43 1h-.28l-.43-1-7.62-33.37h-15.06l1.07 4.12c-3.2-3.35-7.9-5.35-14.7-5.26a18.61 18.61 0 0 0-15.48 8c-3.27 4.69-4.54 10.79-4.54 16.47a27.87 27.87 0 0 0 1.27 8.34 59.54 59.54 0 0 0 7.53 16.19c3.41 5.25 6.67 10.08 9.67 14.34 1.42 2.13 2.7 4.26 4 6.25 2.27 4.12 4 8.1 4 11.5 0 6.68-1.7 11.5-6.25 11.5-3.27 0-5-2.27-6-5.68s-1.28-7.67-1.28-12.07L85 83.3 73.65 8.23H54.9L41.52 96.85h-19.1V68.16h14.2V51.4h-14.2V24h19.74V8.23H7.09v104.38H54l2.84-21.3h14.82l2.84 21.3h14.91l-1.27-8.43.09.19c3.12 5.68 8.66 9.37 18.46 9.37 8.38 0 13.63-3.12 16.9-8S128 94.43 128 87.47c0-5.68-1.85-11.08-4.54-16.33a160.38 160.38 0 0 0-9.8-15.91c-3-4.4-6-8.52-8.24-12.5s-3.83-7.67-3.83-11.22c0-6.11 1.28-10.23 5.25-10.37 2.42 0 4 2 5 4.83s1.14 6.82 1.14 10.23l14.19-1.34 8.68 33.29v44.45h15.34V68.16l15.57-59.93h-15.05zM59 75.12l4.4-32.95.43-2.7h.85l.43 2.7 4.4 32.95zM354.89 24V8.23h-35.07v23.68c-.68-5.3-1.74-9.55-3.41-12.89-4.12-8-11.79-10.79-26-10.79h-12.06v14.63a24.74 24.74 0 0 0-1.56-4.41 19.93 19.93 0 0 0-6.11-7.81 19.09 19.09 0 0 0-11.79-3.55A19.54 19.54 0 0 0 247 10.64a19.54 19.54 0 0 0-6 7.81 24.75 24.75 0 0 0-1.56 4.42V8.23h-18.76l-9.08 47.71-.71 5.54h-.28l-.71-5.54-9.1-47.71h-18.75v104.38h14.2v-70h.85l.57 4.4 9.8 65.61H214L223.81 47l.57-4.4h.85v70h14.2V98.1a24.59 24.59 0 0 0 1.56 4.43 19.14 19.14 0 0 0 6 7.67c2.84 2.27 6.82 3.55 11.93 3.55s8.95-1.28 11.79-3.55a19.53 19.53 0 0 0 6.11-7.67 24.58 24.58 0 0 0 1.56-4.42v14.5h12.07c14.2 0 21.87-2.84 26-10.79A40.36 40.36 0 0 0 319.82 89v23.63h35.08V96.85h-19.75V68.16h14.2V51.4h-14.2V24zM264 91.17a9.94 9.94 0 0 1-.57 3.83c-.57 2.13-1.85 3.83-4.55 3.83a4.07 4.07 0 0 1-3-1.14c-1.42-1.56-2.13-3.55-2.13-6.53V29.67a10.86 10.86 0 0 1 .57-3.83c.57-1.85 1.85-3.83 4.54-3.83a4.42 4.42 0 0 1 3.14 1.13c1.42 1.7 2 3.69 2 6.53zm40.9-10.65a45.7 45.7 0 0 1-1.42 11.08c-1.56 5.11-4.55 5.68-9.8 5.68V23.56c5.25 0 8.24.57 9.8 5.54a47.91 47.91 0 0 1 1.42 11.08c.14 5 .14 11.65.14 20.17s-.04 15.19-.14 20.16z"/></g></g></svg>