<svg xmlns="http://www.w3.org/2000/svg" viewBox="0 0 363.24 120.83"><defs><style>.cls-1{fill:#939393}.cls-2{fill:#231815}</style></defs><title>hardmode</title><g id="레이어_2" data-name="레이어 2"><g id="레이어_1-2" data-name="레이어 1"><path class="cls-1" d="M260.15 120.83c-6.37 0-11.7-1.59-15.87-4.73l-3.59 3.59h-14.2l-5.19-5.19-6 5.19h-6.53l-6-5.19-5.19 5.19h-14.2l-7.09-7.09V8.22l7.09-7.09h18.75l7 5.76 3 15.65L215 6.9l7-5.76h18.75l3.6 3.6A26.81 26.81 0 0 1 260.15 0 26.16 26.16 0 0 1 276 4.79l3.66-3.66h12.07c8.3 0 17.14.8 24 5.35l5.35-5.35h35.08l7.09 7.09V24l-7.09 7.09H343.5v13.22h7.12l7.09 7.09v16.76l-7.09 7.09h-7.12v14.51h12.65l7.09 7.09v15.76l-7.09 7.09h-35.07l-5.36-5.36c-6.92 4.56-15.75 5.36-24 5.36h-12.11L276 116c-4.22 3.22-9.53 4.83-15.85 4.83z"/><path class="cls-1" d="M117 119.06l-6.58-5.5-5.5 5.5h-26l-7-6.15-2-15.15h-2.43l-2 15.15-7 6.15H34.35l-6-6-6 6H7.09L0 112V7.59L7.09.5h15.33l6 6 6-6h15.27l4.44 4.44L59.3.5H78l6.18 5.32L89.55.5h15.34c8.51 0 14.83 2 19.53 5l5-5h12.07c12.22 0 25.61 1.74 32.28 14.62 4.55 9.09 5.34 21.65 5.34 44.73s-.79 35.5-5.29 44.5c-6.72 13-20.11 14.71-32.33 14.71z"/><path class="cls-2" d="M356.16 24V8.22h-35.08v23.69c-.68-5.3-1.74-9.55-3.41-12.89-4.12-8-11.79-10.79-26-10.79h-12.06v14.63a24.74 24.74 0 0 0-1.61-4.41 19.93 19.93 0 0 0-6.11-7.81 19.09 19.09 0 0 0-11.79-3.55 19.54 19.54 0 0 0-11.93 3.55 19.54 19.54 0 0 0-6 7.81 24.75 24.75 0 0 0-1.56 4.42V8.22h-18.66l-9.09 47.72-.71 5.54h-.28l-.71-5.54-9.1-47.72h-18.74v104.39h14.2v-70h.85l.57 4.4 9.8 65.61h6.53l9.8-65.62.57-4.4h.85v70h14.2V98.1a24.59 24.59 0 0 0 1.56 4.43 19.14 19.14 0 0 0 6 7.67c2.84 2.27 6.82 3.55 11.93 3.55s8.95-1.28 11.79-3.55a19.53 19.53 0 0 0 6.11-7.67 24.58 24.58 0 0 0 1.56-4.42v14.5h12.07c14.2 0 21.87-2.84 26-10.79A40.36 40.36 0 0 0 321.08 89v23.63h35.08V96.84h-19.74V68.16h14.2V51.4h-14.2V24zm-90.9 67.16a9.94 9.94 0 0 1-.56 3.84c-.57 2.13-1.85 3.83-4.55 3.83a4.07 4.07 0 0 1-3-1.14c-1.42-1.56-2.13-3.55-2.13-6.53V29.67a10.86 10.86 0 0 1 .57-3.83c.57-1.85 1.85-3.83 4.54-3.83a4.42 4.42 0 0 1 3.13 1.14c1.42 1.7 2 3.69 2 6.53zm40.9-10.65a45.7 45.7 0 0 1-1.42 11.08c-1.56 5.11-4.55 5.68-9.8 5.68V23.56c5.25 0 8.24.57 9.8 5.54a47.91 47.91 0 0 1 1.42 11.08c.14 5 .14 11.65.14 20.17s.01 15.19-.13 20.16zM141.53 7.59h-12.07V24.5c-3.09-11.13-10.9-16.9-24.57-16.9H89.55v76.18L78 7.59H59.3l-9.61 63.63V7.59H34.35v43.18H22.42V7.59H7.09V112h15.33V66.53h11.93V112h24.1l2.84-21.3h14.77L78.9 112h26V68h4.1l8 44h24.57c14.2 0 21.87-2.84 26-10.79s4.55-20.88 4.55-41.33-.57-33.52-4.55-41.47-11.84-10.82-26.04-10.82zM63.42 74.48l4.4-32.95.43-2.7h.85l.43 2.7 4.4 32.95zm48.71-23a10.65 10.65 0 0 1-7.24 2.27v-31c2.13 0 5 .14 7.24 2.13s4.12 6 4.12 13.35-1.84 11.26-4.12 13.25zm10.37 9.94c3.3-2.25 5.59-6.23 7-11.14v47zM156 79.88A45.69 45.69 0 0 1 154.6 91c-1.56 5.11-4.55 5.68-9.8 5.68V22.93c5.25 0 8.24.57 9.8 5.54a47.91 47.91 0 0 1 1.4 11.08c.14 5 .14 11.65.14 20.17s.02 15.19-.14 20.16z"/></g></g></svg>