<svg xmlns="http://www.w3.org/2000/svg" viewBox="0 0 316.78 366.22"><defs><style>.cls-1{fill:#939393}.cls-2{fill:#231815}</style></defs><title>title2</title><g id="레이어_2" data-name="레이어 2"><g id="레이어_1-2" data-name="레이어 1"><path class="cls-1" d="M207 134.86c-9.82 0-15.75-3.37-19.33-7.2-4.42 4.33-11.23 6.24-21.68 6.24H136.5l-3.9-3.46-1.49-12.44-1.48 12.4-3.9 3.46h-32.2l-1.73-1.73-1.73 1.73H70.94L67.06 130c-5 3.22-11.31 4.84-18.86 4.84-14 0-24.12-5.57-29.18-16.1-4-8.34-4-17.69-4-23.87V93l3.6-4 24.07-2.18c-2.84-5.11-6.91-11.09-12.11-18.71l-.2-.31c-8.7-14.29-12.92-25.42-12.92-34C17.46 26 19.65.44 47.85 0h.63c14.08 0 30.76 6.11 31.76 34.69h9.82l1.73 1.73 1.73-1.73h19.12l3.83 3.83.07-.48 3.88-3.34H142l3.7 3.2 3.2-3.2h15c10.06 0 17.69 1.31 23 7.15 3.55-4.33 9.65-8.11 20.15-8.11a29.36 29.36 0 0 1 12.28 2.41l1.28-1.45h18.17l3.09 2.8 3.14-2.8h14.57l3.16 2.8 3.07-2.8H284l4 4.51-11 91.23-3.9 3.46h-16.51l-3.89-3.42-.32-2.5-.32 2.5-3.89 3.42h-16.33l-3.9-3.44-.5-4c-3.52 4.6-9.68 8.4-20.44 8.4zM53.51 44.77c2.12 4.1 5.16 8.9 8.92 14.69 1.5 2.22 3 4.51 4.53 6.82V43.56z"/><path class="cls-2" d="M267.11 40c-1.18 13-2.75 28.35-3.93 41.32L258.27 40h-12l-4.71 41.44L237.45 40h-15.32l.66 5.34c-2.94-3.6-7.86-6.3-15.75-6.3-13.39 0-18.83 7.25-19.71 15.43a25.39 25.39 0 0 0-1.85-5.34c-3.54-6.73-8.64-9.13-21.61-9.13h-13.55v65.25L140.74 40h-19.05l-10.45 70.1V40h-16.3v36.53h-6.29V40h-16.3v47.48c-2.94-7.85-8.18-15.94-14.44-25.19-7.82-12-13.22-20.62-13.22-28.53 0-7.09.54-12 3.78-12 4.32 0 4.32 13.36 4.32 17.65l22.12-2c0-10.06-1.08-32.33-27-32-21.56.31-25.06 17.79-25.06 28.35 0 9.4 6.2 21.44 12.14 31.17 11.6 17 17.8 26.06 17.8 36.29 0 7.75-.54 11.71-4.59 11.71-5.93 0-5.93-17-5.93-20.78l-21.85 2c0 11.05-.54 35.13 27.78 35.13 14.17 0 21-6.47 24.15-14.13v13.15h16.3V89.86h6.29v38.44h29.5l2.16-18h9l2.16 18H166c13 0 17.68-3.12 20.23-7.81a16 16 0 0 0 1.47-4.3c1.57 6.84 6.89 13.07 19.31 13.07 14.93 0 19.64-8.77 19.64-17.9v-34.8l6.45 51.74h13.75l5.52-42.3 5.5 42.28h13.95L282.43 40zM128.17 96.59l2.95-35.07 3.14 35.07zm44.94-8.65v20.66c0 7.09-3.93 6.73-6.48 6.73V53c2.36.12 5.3-.24 5.89 2.88.98 5.39.58 13.92.58 32.06zm37.27 23.42c0 2.76-1.18 5.28-3.14 5.28-1.77 0-3.34-2-3.34-5.28V57c0-2.88 1.18-5.29 3.34-5.29s3.14 2.52 3.14 5.29z"/><path class="cls-1" d="M7.09 366.22L0 359.13v-224l7.09-7.09H36c22.65 0 38.89 4.92 49.65 15A50.38 50.38 0 0 1 98.8 164l4.45-29.43 7.3-6 35.34 1.43h19.91c20.76 0 36.4 6 46.81 17.85v-10.71l7.09-7.09h25.5c33.67 0 51.4 7.71 61.19 26.63v.09c8.75 17.5 10.35 44.29 10.35 90.77 0 47.27-1.55 72.87-10.35 90.47v.09c-9.79 18.91-27.52 26.63-61.19 26.63h-53.9l-7-5.83-11.44-63.33v62.07l-7.09 7.09H133.4l-7.09-7.09v-28.48l-4.08 29.61-7 6.12-38.6.17-3.82-4.43A67.58 67.58 0 0 1 48 366.21H7.09zm40-47.24a10 10 0 0 0 3.39-1.55c4.39-3.17 6.81-12.17 6.81-25.34s-2.42-22.17-6.81-25.34a10 10 0 0 0-3.39-1.55zm212.09-1.19c4.5-.69 5.57-2.49 6.84-6.62.85-2.88 2.35-9.61 2.69-21.53.3-10.4.3-24.52.3-42.4s0-32-.3-42.4c-.32-10.82-1.64-17.7-2.71-21.59-1.24-3.91-2.33-5.62-6.82-6.27zm-46.58-54.61v-11.3q-.9.95-1.84 1.81zm-125.42-22.4l.24-1.58-.89 1zm85.71-14.22a10.77 10.77 0 0 0 3.54-2.05c4.11-3.6 6.28-11.4 6.28-22.57 0-15.12-3.93-20.81-6.28-22.87a9.81 9.81 0 0 0-3.55-1.94zm-125.8-6.76a11.77 11.77 0 0 0 3.61-1.57c4.38-2.92 6.6-9.85 6.6-20.62s-2.22-17.7-6.6-20.62a11.8 11.8 0 0 0-3.61-1.57z"/><path class="cls-2" d="M300.09 159.94c-8.7-16.8-24.9-22.8-54.9-22.8h-25.5v45.08c-4.57-29.63-21.4-45.08-53.9-45.08H145.6l-35.35-1.46-18.78 124.08c-4.26-9.29-9.39-15.3-15.82-18.87 7.62-7 12.8-13.1 16.15-20.42s4.27-15.24 4.27-25.9c0-22.25-5.18-36.87-15.24-46.32s-25.29-13.1-44.8-13.1h-29v224h40.59c12.74-.6 22.74-4.07 30.28-9.63L76.61 358l38.6-.17 18.18-132.05v131.86h32.4v-93h8.7l16.8 93h53.9c30 0 46.2-6 54.9-22.8 8.4-16.8 9.6-44.1 9.6-87.3s-1.2-70.8-9.6-87.6zM54.63 323.17c-5.49 4-11.89 3.35-14.63 3.35v-68.87c2.74 0 9.14-.61 14.63 3.35s9.75 12.8 9.75 31.08-4.27 27.13-9.75 31.09zm0-99c-5.49 3.66-11.89 3.35-14.63 3.35v-59.77c2.74 0 9.14-.31 14.63 3.35s9.75 11 9.75 26.51-4.27 22.86-9.75 26.52zm126.47 5.71c-4.8 4.2-10.8 4.8-15.3 4.8v-65.4c4.5 0 10.5.3 15.3 4.5s8.7 12.6 8.7 28.2-3.9 23.66-8.71 27.86zm21.9 21c8.93-6.1 14.38-18.22 16.7-32.78V337zm72.8 39c-.3 10.5-1.5 18.3-3 23.4-3.3 10.8-9.6 12-20.7 12V169.54c11.1 0 17.4 1.2 20.7 11.7 1.5 5.4 2.7 13.2 3 23.4.3 10.5.3 24.6.3 42.6s-.01 32.1-.31 42.6z"/></g></g></svg>